<svg width="666" height="456" viewBox="0 0 666 456" fill="none" xmlns="http://www.w3.org/2000/svg">
<rect x="137" y="73" width="392" height="303" rx="17" fill="#F1F6FE"/>
<path d="M208.75 243.052C213.546 240.283 219.454 240.283 224.25 243.052L258.047 262.564C262.842 265.333 265.797 270.45 265.797 275.987V315.013C265.797 320.55 262.842 325.667 258.047 328.436L224.25 347.948C219.454 350.717 213.546 350.717 208.75 347.948L174.953 328.436C170.158 325.667 167.203 320.55 167.203 315.013V275.987C167.203 270.45 170.158 265.333 174.953 262.564L208.75 243.052Z" fill="white" stroke="black"/>
<g opacity="0.4">
<path d="M261.701 268.979L262.201 269.845L216.301 296.345L215.801 295.479L261.701 268.979Z" fill="black"/>
<path d="M170.569 269.866L171.069 269L216.969 295.5L216.469 296.366L170.569 269.866Z" fill="black"/>
<path d="M217 348H216V295H217V348Z" fill="black"/>
</g>
<path d="M440.75 107.052C445.546 104.283 451.454 104.283 456.25 107.052L490.047 126.564C494.842 129.333 497.797 134.45 497.797 139.987V179.013C497.797 184.55 494.842 189.667 490.047 192.436L456.25 211.948C451.454 214.717 445.546 214.717 440.75 211.948L406.953 192.436C402.158 189.667 399.203 184.55 399.203 179.013V139.987C399.203 134.45 402.158 129.333 406.953 126.564L440.75 107.052Z" fill="white" stroke="black"/>
<g opacity="0.4">
<path d="M493.701 132.979L494.201 133.845L448.301 160.345L447.801 159.479L493.701 132.979Z" fill="black"/>
<path d="M402.569 133.866L403.069 133L448.969 159.5L448.469 160.366L402.569 133.866Z" fill="black"/>
<path d="M449 212H448V159H449V212Z" fill="black"/>
</g>
<line x1="379.75" y1="199.067" x2="423.051" y2="174.067" stroke="black" stroke-dasharray="2 2"/>
<path d="M325.75 174.052C330.546 171.283 336.454 171.283 341.25 174.052L375.047 193.564C379.842 196.333 382.797 201.45 382.797 206.987V246.013C382.797 251.55 379.842 256.667 375.047 259.436L341.25 278.948C336.454 281.717 330.546 281.717 325.75 278.948L291.953 259.436C287.158 256.667 284.203 251.55 284.203 246.013V206.987C284.203 201.45 287.158 196.333 291.953 193.564L325.75 174.052Z" fill="#D865FF" stroke="black"/>
<g opacity="0.4">
<path d="M378.631 200L379.131 200.866L333.232 227.366L332.732 226.5L378.631 200Z" fill="white"/>
<path d="M287.5 200.888L288 200.022L333.899 226.522L333.399 227.388L287.5 200.888Z" fill="white"/>
<path d="M333.931 279.022H332.931V226.022H333.931V279.022Z" fill="white"/>
</g>
<path d="M357.326 237.646L357.082 252.189L354.037 253.947L354.282 239.403L357.326 237.646ZM358.993 251.086L359.238 236.542L364.441 233.538C365.384 232.993 366.195 232.736 366.872 232.767C367.554 232.791 368.075 233.074 368.436 233.616C368.796 234.153 368.968 234.921 368.951 235.92C368.934 236.924 368.729 237.912 368.335 238.885C367.945 239.851 367.396 240.742 366.688 241.559C365.98 242.375 365.144 243.062 364.18 243.618L360.97 245.472L361.016 242.702L363.661 241.175C364.12 240.91 364.505 240.597 364.816 240.234C365.131 239.87 365.371 239.476 365.536 239.052C365.702 238.623 365.788 238.187 365.796 237.742C365.803 237.292 365.73 236.95 365.576 236.716C365.421 236.477 365.19 236.357 364.881 236.357C364.573 236.357 364.191 236.488 363.735 236.751L362.235 237.618L362.038 249.328L358.993 251.086Z" fill="#6400AB"/>
<line opacity="0.8" x1="216.5" y1="140" x2="216.5" y2="232" stroke="black"/>
<path d="M233.83 151.455C233.778 151.023 233.571 150.688 233.207 150.449C232.844 150.21 232.398 150.091 231.869 150.091C231.483 150.091 231.145 150.153 230.855 150.278C230.568 150.403 230.344 150.575 230.182 150.794C230.023 151.013 229.943 151.261 229.943 151.54C229.943 151.773 229.999 151.973 230.109 152.141C230.223 152.305 230.368 152.443 230.544 152.554C230.72 152.662 230.905 152.751 231.098 152.822C231.291 152.891 231.469 152.946 231.631 152.989L232.517 153.227C232.744 153.287 232.997 153.369 233.276 153.474C233.557 153.58 233.825 153.723 234.081 153.905C234.339 154.084 234.553 154.314 234.72 154.595C234.888 154.876 234.972 155.222 234.972 155.631C234.972 156.102 234.848 156.528 234.601 156.909C234.357 157.29 233.999 157.592 233.527 157.817C233.058 158.041 232.489 158.153 231.818 158.153C231.193 158.153 230.652 158.053 230.195 157.851C229.74 157.649 229.382 157.368 229.121 157.007C228.862 156.646 228.716 156.227 228.682 155.75H229.773C229.801 156.08 229.912 156.352 230.105 156.568C230.301 156.781 230.548 156.94 230.847 157.045C231.148 157.148 231.472 157.199 231.818 157.199C232.222 157.199 232.584 157.134 232.905 157.003C233.226 156.869 233.48 156.685 233.668 156.449C233.855 156.21 233.949 155.932 233.949 155.614C233.949 155.324 233.868 155.088 233.706 154.906C233.544 154.724 233.331 154.577 233.067 154.463C232.803 154.349 232.517 154.25 232.21 154.165L231.136 153.858C230.455 153.662 229.915 153.382 229.517 153.018C229.119 152.655 228.92 152.179 228.92 151.591C228.92 151.102 229.053 150.676 229.317 150.312C229.584 149.946 229.942 149.662 230.391 149.46C230.842 149.256 231.347 149.153 231.903 149.153C232.466 149.153 232.966 149.254 233.403 149.456C233.841 149.655 234.188 149.928 234.443 150.274C234.702 150.621 234.838 151.014 234.852 151.455H233.83ZM239.317 158.136C238.686 158.136 238.142 157.997 237.685 157.719C237.23 157.438 236.88 157.045 236.632 156.543C236.388 156.037 236.266 155.449 236.266 154.778C236.266 154.108 236.388 153.517 236.632 153.006C236.88 152.491 237.223 152.091 237.664 151.804C238.107 151.514 238.624 151.369 239.215 151.369C239.556 151.369 239.892 151.426 240.225 151.54C240.557 151.653 240.86 151.838 241.132 152.094C241.405 152.347 241.623 152.682 241.784 153.099C241.946 153.517 242.027 154.031 242.027 154.642V155.068H236.982V154.199H241.005C241.005 153.83 240.931 153.5 240.783 153.21C240.638 152.92 240.431 152.692 240.161 152.524C239.894 152.357 239.578 152.273 239.215 152.273C238.814 152.273 238.468 152.372 238.175 152.571C237.885 152.767 237.662 153.023 237.506 153.338C237.35 153.653 237.272 153.991 237.272 154.352V154.932C237.272 155.426 237.357 155.845 237.527 156.189C237.701 156.53 237.941 156.79 238.248 156.969C238.554 157.145 238.911 157.233 239.317 157.233C239.581 157.233 239.82 157.196 240.033 157.122C240.249 157.045 240.435 156.932 240.591 156.781C240.748 156.628 240.868 156.437 240.953 156.21L241.925 156.483C241.823 156.812 241.651 157.102 241.409 157.352C241.168 157.599 240.87 157.793 240.515 157.932C240.159 158.068 239.76 158.136 239.317 158.136ZM243.557 158V151.455H244.529V152.443H244.597C244.716 152.119 244.932 151.857 245.245 151.655C245.557 151.453 245.909 151.352 246.301 151.352C246.375 151.352 246.468 151.354 246.578 151.357C246.689 151.359 246.773 151.364 246.83 151.369V152.392C246.796 152.384 246.718 152.371 246.596 152.354C246.476 152.334 246.35 152.324 246.216 152.324C245.898 152.324 245.614 152.391 245.364 152.524C245.117 152.655 244.921 152.837 244.776 153.07C244.634 153.3 244.563 153.562 244.563 153.858V158H243.557ZM253.574 151.455L251.153 158H250.13L247.71 151.455H248.801L250.608 156.67H250.676L252.483 151.455H253.574ZM257.411 158.136C256.78 158.136 256.236 157.997 255.779 157.719C255.324 157.438 254.973 157.045 254.726 156.543C254.482 156.037 254.36 155.449 254.36 154.778C254.36 154.108 254.482 153.517 254.726 153.006C254.973 152.491 255.317 152.091 255.757 151.804C256.201 151.514 256.718 151.369 257.309 151.369C257.65 151.369 257.986 151.426 258.319 151.54C258.651 151.653 258.953 151.838 259.226 152.094C259.499 152.347 259.716 152.682 259.878 153.099C260.04 153.517 260.121 154.031 260.121 154.642V155.068H255.076V154.199H259.098C259.098 153.83 259.025 153.5 258.877 153.21C258.732 152.92 258.525 152.692 258.255 152.524C257.988 152.357 257.672 152.273 257.309 152.273C256.908 152.273 256.561 152.372 256.269 152.571C255.979 152.767 255.756 153.023 255.6 153.338C255.444 153.653 255.365 153.991 255.365 154.352V154.932C255.365 155.426 255.451 155.845 255.621 156.189C255.794 156.53 256.034 156.79 256.341 156.969C256.648 157.145 257.005 157.233 257.411 157.233C257.675 157.233 257.914 157.196 258.127 157.122C258.343 157.045 258.529 156.932 258.685 156.781C258.841 156.628 258.962 156.437 259.047 156.21L260.019 156.483C259.917 156.812 259.745 157.102 259.503 157.352C259.262 157.599 258.963 157.793 258.608 157.932C258.253 158.068 257.854 158.136 257.411 158.136ZM261.651 158V151.455H262.623V152.443H262.691C262.81 152.119 263.026 151.857 263.338 151.655C263.651 151.453 264.003 151.352 264.395 151.352C264.469 151.352 264.561 151.354 264.672 151.357C264.783 151.359 264.867 151.364 264.924 151.369V152.392C264.89 152.384 264.811 152.371 264.689 152.354C264.57 152.334 264.444 152.324 264.31 152.324C263.992 152.324 263.708 152.391 263.458 152.524C263.211 152.655 263.015 152.837 262.87 153.07C262.728 153.3 262.657 153.562 262.657 153.858V158H261.651Z" fill="#312925"/>
<line opacity="0.8" x1="448.5" y1="21" x2="448.5" y2="96" stroke="black"/>
<path d="M463.75 39H461.057V30.2727H463.869C464.716 30.2727 465.44 30.4474 466.043 30.7969C466.645 31.1435 467.107 31.642 467.428 32.2926C467.749 32.9403 467.909 33.7159 467.909 34.6193C467.909 35.5284 467.747 36.3111 467.423 36.9673C467.099 37.6207 466.628 38.1236 466.009 38.4759C465.389 38.8253 464.636 39 463.75 39ZM462.114 38.0625H463.682C464.403 38.0625 465.001 37.9233 465.476 37.6449C465.95 37.3665 466.304 36.9702 466.537 36.456C466.77 35.9418 466.886 35.3295 466.886 34.6193C466.886 33.9148 466.771 33.3082 466.541 32.7997C466.311 32.2884 465.967 31.8963 465.51 31.6236C465.053 31.348 464.483 31.2102 463.801 31.2102H462.114V38.0625ZM472.29 39.1364C471.659 39.1364 471.115 38.9972 470.658 38.7188C470.203 38.4375 469.852 38.0455 469.605 37.5426C469.361 37.0369 469.239 36.4489 469.239 35.7784C469.239 35.108 469.361 34.517 469.605 34.0057C469.852 33.4915 470.196 33.0909 470.636 32.804C471.08 32.5142 471.597 32.3693 472.188 32.3693C472.528 32.3693 472.865 32.4261 473.197 32.5398C473.53 32.6534 473.832 32.8381 474.105 33.0938C474.378 33.3466 474.595 33.6818 474.757 34.0994C474.919 34.517 475 35.0312 475 35.642V36.0682H469.955V35.1989H473.977C473.977 34.8295 473.903 34.5 473.756 34.2102C473.611 33.9205 473.403 33.6918 473.134 33.5241C472.866 33.3565 472.551 33.2727 472.188 33.2727C471.787 33.2727 471.44 33.3722 471.148 33.571C470.858 33.767 470.635 34.0227 470.479 34.3381C470.322 34.6534 470.244 34.9915 470.244 35.3523V35.9318C470.244 36.4261 470.33 36.8452 470.5 37.1889C470.673 37.5298 470.913 37.7898 471.22 37.9688C471.527 38.1449 471.884 38.233 472.29 38.233C472.554 38.233 472.793 38.196 473.006 38.1222C473.222 38.0455 473.408 37.9318 473.564 37.7812C473.72 37.6278 473.841 37.4375 473.926 37.2102L474.898 37.483C474.795 37.8125 474.624 38.1023 474.382 38.3523C474.141 38.5994 473.842 38.7926 473.487 38.9318C473.132 39.0682 472.733 39.1364 472.29 39.1364ZM481.683 32.4545L479.262 39H478.24L475.819 32.4545H476.91L478.717 37.6705H478.785L480.592 32.4545H481.683ZM483.01 39V32.4545H484.016V39H483.01ZM483.522 31.3636C483.326 31.3636 483.157 31.2969 483.015 31.1634C482.875 31.0298 482.806 30.8693 482.806 30.6818C482.806 30.4943 482.875 30.3338 483.015 30.2003C483.157 30.0668 483.326 30 483.522 30C483.718 30 483.885 30.0668 484.025 30.2003C484.167 30.3338 484.238 30.4943 484.238 30.6818C484.238 30.8693 484.167 31.0298 484.025 31.1634C483.885 31.2969 483.718 31.3636 483.522 31.3636ZM488.517 39.1364C487.903 39.1364 487.375 38.9915 486.932 38.7017C486.489 38.4119 486.148 38.0128 485.909 37.5043C485.67 36.9957 485.551 36.4148 485.551 35.7614C485.551 35.0966 485.673 34.5099 485.918 34.0014C486.165 33.4901 486.509 33.0909 486.949 32.804C487.392 32.5142 487.909 32.3693 488.5 32.3693C488.96 32.3693 489.375 32.4545 489.744 32.625C490.114 32.7955 490.416 33.0341 490.652 33.3409C490.888 33.6477 491.034 34.0057 491.091 34.4148H490.085C490.009 34.1165 489.838 33.8523 489.574 33.6222C489.313 33.3892 488.96 33.2727 488.517 33.2727C488.125 33.2727 487.781 33.375 487.486 33.5795C487.193 33.7812 486.964 34.0668 486.8 34.4361C486.638 34.8026 486.557 35.233 486.557 35.7273C486.557 36.233 486.636 36.6733 486.795 37.0483C486.957 37.4233 487.185 37.7145 487.477 37.9219C487.773 38.1293 488.119 38.233 488.517 38.233C488.778 38.233 489.016 38.1875 489.229 38.0966C489.442 38.0057 489.622 37.875 489.77 37.7045C489.918 37.5341 490.023 37.3295 490.085 37.0909H491.091C491.034 37.4773 490.893 37.8253 490.669 38.1349C490.447 38.4418 490.153 38.6861 489.787 38.8679C489.423 39.0469 489 39.1364 488.517 39.1364ZM495.305 39.1364C494.675 39.1364 494.131 38.9972 493.673 38.7188C493.219 38.4375 492.868 38.0455 492.621 37.5426C492.376 37.0369 492.254 36.4489 492.254 35.7784C492.254 35.108 492.376 34.517 492.621 34.0057C492.868 33.4915 493.212 33.0909 493.652 32.804C494.095 32.5142 494.612 32.3693 495.203 32.3693C495.544 32.3693 495.881 32.4261 496.213 32.5398C496.545 32.6534 496.848 32.8381 497.121 33.0938C497.393 33.3466 497.611 33.6818 497.773 34.0994C497.935 34.517 498.016 35.0312 498.016 35.642V36.0682H492.97V35.1989H496.993C496.993 34.8295 496.919 34.5 496.771 34.2102C496.626 33.9205 496.419 33.6918 496.149 33.5241C495.882 33.3565 495.567 33.2727 495.203 33.2727C494.803 33.2727 494.456 33.3722 494.163 33.571C493.874 33.767 493.651 34.0227 493.494 34.3381C493.338 34.6534 493.26 34.9915 493.26 35.3523V35.9318C493.26 36.4261 493.345 36.8452 493.516 37.1889C493.689 37.5298 493.929 37.7898 494.236 37.9688C494.543 38.1449 494.899 38.233 495.305 38.233C495.57 38.233 495.808 38.196 496.021 38.1222C496.237 38.0455 496.423 37.9318 496.58 37.7812C496.736 37.6278 496.857 37.4375 496.942 37.2102L497.913 37.483C497.811 37.8125 497.639 38.1023 497.398 38.3523C497.156 38.5994 496.858 38.7926 496.503 38.9318C496.148 39.0682 495.749 39.1364 495.305 39.1364Z" fill="#312925"/>
<path d="M399.822 276V268.916H397.274V267.67H398.534C398.898 267.67 399.192 267.619 399.416 267.516C399.64 267.404 399.803 267.231 399.906 266.998C400.009 266.765 400.06 266.452 400.06 266.06H401.292V276H399.822ZM396.784 276V274.614H403.616V276H396.784ZM408.595 276.224C407.913 276.224 407.302 276.112 406.761 275.888C406.229 275.664 405.809 275.333 405.501 274.894C405.193 274.455 405.039 273.914 405.039 273.27C405.039 272.551 405.253 271.954 405.683 271.478C406.121 271.002 406.705 270.685 407.433 270.526L407.461 270.806C406.873 270.657 406.397 270.4 406.033 270.036C405.669 269.672 405.487 269.182 405.487 268.566C405.487 268.043 405.617 267.577 405.879 267.166C406.149 266.755 406.518 266.433 406.985 266.2C407.451 265.957 407.988 265.836 408.595 265.836C409.201 265.836 409.738 265.957 410.205 266.2C410.681 266.433 411.049 266.755 411.311 267.166C411.572 267.577 411.703 268.043 411.703 268.566C411.703 269.182 411.521 269.672 411.157 270.036C410.802 270.4 410.326 270.657 409.729 270.806L409.757 270.526C410.485 270.694 411.063 271.016 411.493 271.492C411.931 271.959 412.151 272.551 412.151 273.27C412.151 273.914 411.997 274.455 411.689 274.894C411.381 275.333 410.961 275.664 410.429 275.888C409.897 276.112 409.285 276.224 408.595 276.224ZM408.595 274.852C409.183 274.852 409.668 274.717 410.051 274.446C410.433 274.166 410.625 273.737 410.625 273.158C410.625 272.617 410.452 272.187 410.107 271.87C409.771 271.543 409.267 271.38 408.595 271.38C407.932 271.38 407.428 271.543 407.083 271.87C406.737 272.187 406.565 272.617 406.565 273.158C406.565 273.737 406.756 274.166 407.139 274.446C407.521 274.717 408.007 274.852 408.595 274.852ZM408.595 270.064C409.071 270.064 409.453 269.943 409.743 269.7C410.032 269.457 410.177 269.093 410.177 268.608C410.177 268.179 410.032 267.838 409.743 267.586C409.463 267.334 409.08 267.208 408.595 267.208C408.109 267.208 407.722 267.334 407.433 267.586C407.153 267.838 407.013 268.179 407.013 268.608C407.013 269.093 407.157 269.457 407.447 269.7C407.736 269.943 408.119 270.064 408.595 270.064ZM413.461 276C413.461 275.263 413.568 274.605 413.783 274.026C413.998 273.447 414.376 272.906 414.917 272.402C415.468 271.889 416.228 271.375 417.199 270.862C417.619 270.647 417.96 270.442 418.221 270.246C418.482 270.05 418.674 269.84 418.795 269.616C418.916 269.392 418.977 269.121 418.977 268.804C418.977 268.477 418.912 268.197 418.781 267.964C418.65 267.731 418.454 267.549 418.193 267.418C417.932 267.278 417.605 267.208 417.213 267.208C416.578 267.208 416.079 267.376 415.715 267.712C415.36 268.048 415.136 268.529 415.043 269.154L413.517 269.056C413.62 268.076 413.988 267.297 414.623 266.718C415.258 266.13 416.121 265.836 417.213 265.836C417.922 265.836 418.52 265.957 419.005 266.2C419.5 266.443 419.873 266.783 420.125 267.222C420.377 267.661 420.503 268.169 420.503 268.748C420.503 269.261 420.419 269.705 420.251 270.078C420.083 270.451 419.803 270.797 419.411 271.114C419.019 271.431 418.482 271.772 417.801 272.136C417.232 272.444 416.756 272.747 416.373 273.046C416 273.335 415.715 273.615 415.519 273.886C415.332 274.147 415.23 274.39 415.211 274.614H420.517V276H413.461ZM424.432 276V274.152H426.336V276H424.432ZM430.25 276C430.25 275.263 430.357 274.605 430.572 274.026C430.787 273.447 431.165 272.906 431.706 272.402C432.257 271.889 433.017 271.375 433.988 270.862C434.408 270.647 434.749 270.442 435.01 270.246C435.271 270.05 435.463 269.84 435.584 269.616C435.705 269.392 435.766 269.121 435.766 268.804C435.766 268.477 435.701 268.197 435.57 267.964C435.439 267.731 435.243 267.549 434.982 267.418C434.721 267.278 434.394 267.208 434.002 267.208C433.367 267.208 432.868 267.376 432.504 267.712C432.149 268.048 431.925 268.529 431.832 269.154L430.306 269.056C430.409 268.076 430.777 267.297 431.412 266.718C432.047 266.13 432.91 265.836 434.002 265.836C434.711 265.836 435.309 265.957 435.794 266.2C436.289 266.443 436.662 266.783 436.914 267.222C437.166 267.661 437.292 268.169 437.292 268.748C437.292 269.261 437.208 269.705 437.04 270.078C436.872 270.451 436.592 270.797 436.2 271.114C435.808 271.431 435.271 271.772 434.59 272.136C434.021 272.444 433.545 272.747 433.162 273.046C432.789 273.335 432.504 273.615 432.308 273.886C432.121 274.147 432.019 274.39 432 274.614H437.306V276H430.25ZM442.145 276.224C441.482 276.224 440.903 276.107 440.409 275.874C439.923 275.631 439.536 275.3 439.247 274.88C438.967 274.451 438.803 273.961 438.757 273.41L440.283 273.312C440.348 273.825 440.544 274.213 440.871 274.474C441.197 274.726 441.622 274.852 442.145 274.852C442.733 274.852 443.199 274.675 443.545 274.32C443.89 273.956 444.063 273.443 444.063 272.78C444.063 272.351 443.983 271.977 443.825 271.66C443.675 271.343 443.461 271.105 443.181 270.946C442.901 270.778 442.565 270.694 442.173 270.694C441.809 270.694 441.463 270.787 441.137 270.974C440.819 271.151 440.595 271.399 440.465 271.716L438.911 271.688L439.555 266.06H445.029V267.446H440.829L440.423 270.876L440.129 270.666C440.278 270.386 440.469 270.153 440.703 269.966C440.945 269.779 441.211 269.639 441.501 269.546C441.799 269.443 442.098 269.392 442.397 269.392C443.041 269.392 443.601 269.537 444.077 269.826C444.562 270.115 444.935 270.517 445.197 271.03C445.458 271.543 445.589 272.131 445.589 272.794C445.589 273.457 445.444 274.049 445.155 274.572C444.865 275.095 444.459 275.501 443.937 275.79C443.423 276.079 442.826 276.224 442.145 276.224ZM450.539 276.224C449.877 276.224 449.298 276.107 448.803 275.874C448.318 275.631 447.931 275.3 447.641 274.88C447.361 274.451 447.198 273.961 447.151 273.41L448.677 273.312C448.743 273.825 448.939 274.213 449.265 274.474C449.592 274.726 450.017 274.852 450.539 274.852C451.127 274.852 451.594 274.675 451.939 274.32C452.285 273.956 452.457 273.443 452.457 272.78C452.457 272.351 452.378 271.977 452.219 271.66C452.07 271.343 451.855 271.105 451.575 270.946C451.295 270.778 450.959 270.694 450.567 270.694C450.203 270.694 449.858 270.787 449.531 270.974C449.214 271.151 448.99 271.399 448.859 271.716L447.305 271.688L447.949 266.06H453.423V267.446H449.223L448.817 270.876L448.523 270.666C448.673 270.386 448.864 270.153 449.097 269.966C449.34 269.779 449.606 269.639 449.895 269.546C450.194 269.443 450.493 269.392 450.791 269.392C451.435 269.392 451.995 269.537 452.471 269.826C452.957 270.115 453.33 270.517 453.591 271.03C453.853 271.543 453.983 272.131 453.983 272.794C453.983 273.457 453.839 274.049 453.549 274.572C453.26 275.095 452.854 275.501 452.331 275.79C451.818 276.079 451.221 276.224 450.539 276.224ZM458.01 276V274.152H459.914V276H458.01ZM467.272 276.224C466.18 276.224 465.345 275.963 464.766 275.44C464.188 274.917 463.875 274.231 463.828 273.382L465.326 273.284C465.382 273.853 465.588 274.259 465.942 274.502C466.306 274.735 466.754 274.852 467.286 274.852C467.65 274.852 467.991 274.796 468.308 274.684C468.626 274.572 468.878 274.395 469.064 274.152C469.26 273.909 469.358 273.583 469.358 273.172C469.358 272.771 469.27 272.439 469.092 272.178C468.924 271.917 468.682 271.725 468.364 271.604C468.056 271.473 467.702 271.408 467.3 271.408H466.53V270.092H467.3C467.618 270.092 467.907 270.045 468.168 269.952C468.43 269.859 468.635 269.705 468.784 269.49C468.943 269.275 469.022 269 469.022 268.664C469.022 268.179 468.873 267.815 468.574 267.572C468.285 267.329 467.87 267.208 467.328 267.208C466.768 267.208 466.344 267.325 466.054 267.558C465.774 267.791 465.602 268.113 465.536 268.524L464.024 268.426C464.127 267.651 464.458 267.026 465.018 266.55C465.588 266.074 466.362 265.836 467.342 265.836C467.996 265.836 468.56 265.948 469.036 266.172C469.522 266.387 469.895 266.695 470.156 267.096C470.418 267.497 470.548 267.978 470.548 268.538C470.548 269.154 470.352 269.653 469.96 270.036C469.578 270.409 469.018 270.666 468.28 270.806V270.54C469.083 270.633 469.718 270.923 470.184 271.408C470.651 271.884 470.884 272.486 470.884 273.214C470.884 273.849 470.73 274.39 470.422 274.838C470.124 275.286 469.699 275.631 469.148 275.874C468.607 276.107 467.982 276.224 467.272 276.224ZM472.223 276C472.223 275.263 472.33 274.605 472.545 274.026C472.759 273.447 473.137 272.906 473.679 272.402C474.229 271.889 474.99 271.375 475.961 270.862C476.381 270.647 476.721 270.442 476.983 270.246C477.244 270.05 477.435 269.84 477.557 269.616C477.678 269.392 477.739 269.121 477.739 268.804C477.739 268.477 477.673 268.197 477.543 267.964C477.412 267.731 477.216 267.549 476.955 267.418C476.693 267.278 476.367 267.208 475.975 267.208C475.34 267.208 474.841 267.376 474.477 267.712C474.122 268.048 473.898 268.529 473.805 269.154L472.279 269.056C472.381 268.076 472.75 267.297 473.385 266.718C474.019 266.13 474.883 265.836 475.975 265.836C476.684 265.836 477.281 265.957 477.767 266.2C478.261 266.443 478.635 266.783 478.887 267.222C479.139 267.661 479.265 268.169 479.265 268.748C479.265 269.261 479.181 269.705 479.013 270.078C478.845 270.451 478.565 270.797 478.173 271.114C477.781 271.431 477.244 271.772 476.563 272.136C475.993 272.444 475.517 272.747 475.135 273.046C474.761 273.335 474.477 273.615 474.281 273.886C474.094 274.147 473.991 274.39 473.973 274.614H479.279V276H472.223ZM483.193 276V274.152H485.097V276H483.193ZM492.512 276.224C491.849 276.224 491.271 276.107 490.776 275.874C490.291 275.631 489.903 275.3 489.614 274.88C489.334 274.451 489.171 273.961 489.124 273.41L490.65 273.312C490.715 273.825 490.911 274.213 491.238 274.474C491.565 274.726 491.989 274.852 492.512 274.852C493.1 274.852 493.567 274.675 493.912 274.32C494.257 273.956 494.43 273.443 494.43 272.78C494.43 272.351 494.351 271.977 494.192 271.66C494.043 271.343 493.828 271.105 493.548 270.946C493.268 270.778 492.932 270.694 492.54 270.694C492.176 270.694 491.831 270.787 491.504 270.974C491.187 271.151 490.963 271.399 490.832 271.716L489.278 271.688L489.922 266.06H495.396V267.446H491.196L490.79 270.876L490.496 270.666C490.645 270.386 490.837 270.153 491.07 269.966C491.313 269.779 491.579 269.639 491.868 269.546C492.167 269.443 492.465 269.392 492.764 269.392C493.408 269.392 493.968 269.537 494.444 269.826C494.929 270.115 495.303 270.517 495.564 271.03C495.825 271.543 495.956 272.131 495.956 272.794C495.956 273.457 495.811 274.049 495.522 274.572C495.233 275.095 494.827 275.501 494.304 275.79C493.791 276.079 493.193 276.224 492.512 276.224ZM501.97 276V273.9H497.238V272.626L501.816 266.06H503.44V272.542H504.63V273.9H503.44V276H501.97ZM498.68 272.542H501.97V268.02L498.68 272.542Z" fill="#312925"/>
<line x1="265.75" y1="266.567" x2="309.051" y2="241.567" stroke="black" stroke-dasharray="2 2"/>
</svg>
