<svg width="666" height="456" viewBox="0 0 666 456" fill="none" xmlns="http://www.w3.org/2000/svg">
<rect x="137" y="73" width="392" height="303" rx="17" fill="#F1F6FE"/>
<path d="M235.5 111.619C240.45 108.761 246.55 108.761 251.5 111.619L285.297 131.131C290.247 133.989 293.297 139.271 293.297 144.987V146.012C293.297 151.729 290.247 157.011 285.297 159.869L251.5 179.381C246.55 182.239 240.45 182.239 235.5 179.381L201.704 159.869C196.753 157.011 193.704 151.729 193.704 146.012V144.987C193.704 139.271 196.753 133.989 201.704 131.131L235.5 111.619Z" fill="white"/>
<path d="M292.297 144.987C292.297 139.629 289.438 134.677 284.797 131.997L251 112.484C246.359 109.805 240.641 109.805 236 112.484L202.203 131.997C197.562 134.677 194.703 139.629 194.703 144.987V146.013C194.703 151.372 197.562 156.323 202.203 159.003L236 178.516C240.641 181.195 246.359 181.195 251 178.516L284.797 159.003C289.438 156.323 292.297 151.372 292.297 146.013V144.987ZM293.297 146.013L293.287 146.547C293.104 152.056 290.093 157.1 285.297 159.869L251.5 179.381C246.55 182.239 240.45 182.239 235.5 179.381L201.703 159.869C196.907 157.1 193.896 152.056 193.713 146.547L193.703 146.013V144.987C193.703 139.271 196.753 133.989 201.703 131.131L235.5 111.619C240.45 108.761 246.55 108.761 251.5 111.619L285.297 131.131C290.247 133.989 293.297 139.271 293.297 144.987V146.013Z" fill="black"/>
<path opacity="0.4" d="M289.701 138.844L244 165.229V180H243V165.312L242.969 165.366L197.069 138.866L197.569 138L243 164.229V164H244V164.075L289.201 137.979L289.701 138.844Z" fill="black"/>
<line opacity="0.4" x1="243.5" y1="15" x2="243.5" y2="135" stroke="black" stroke-dasharray="2 2"/>
<line opacity="0.4" x1="243.5" y1="182" x2="243.5" y2="296" stroke="black" stroke-dasharray="2 2"/>
<path d="M325.094 191.619C330.044 188.761 336.143 188.761 341.094 191.619L374.89 211.131C379.841 213.989 382.89 219.271 382.89 224.987V226.012C382.89 231.729 379.841 237.011 374.89 239.869L341.094 259.381C336.143 262.239 330.044 262.239 325.094 259.381L291.297 239.869C286.347 237.011 283.297 231.729 283.297 226.012V224.987C283.297 219.271 286.347 213.989 291.297 211.131L325.094 191.619Z" fill="white"/>
<path d="M381.891 224.987C381.891 219.629 379.031 214.677 374.391 211.997L340.594 192.484C335.953 189.805 330.235 189.805 325.594 192.484L291.797 211.997C287.156 214.677 284.297 219.629 284.297 224.987V226.013C284.297 231.372 287.156 236.323 291.797 239.003L325.594 258.516C330.235 261.195 335.953 261.195 340.594 258.516L374.391 239.003C379.031 236.323 381.891 231.372 381.891 226.013V224.987ZM382.891 226.013L382.881 226.547C382.697 232.056 379.686 237.1 374.891 239.869L341.094 259.381C336.143 262.239 330.044 262.239 325.094 259.381L291.297 239.869C286.501 237.1 283.49 232.056 283.307 226.547L283.297 226.013V224.987C283.297 219.271 286.347 213.989 291.297 211.131L325.094 191.619C330.044 188.761 336.143 188.761 341.094 191.619L374.891 211.131C379.841 213.989 382.891 219.271 382.891 224.987V226.013Z" fill="black"/>
<path opacity="0.4" d="M379.295 218.844L333.594 245.229V260H332.594V245.312L332.562 245.366L286.663 218.866L287.163 218L332.594 244.229V244H333.594V244.075L378.795 217.979L379.295 218.844Z" fill="black"/>
<line opacity="0.4" x1="333.094" y1="95" x2="333.094" y2="215" stroke="black" stroke-dasharray="2 2"/>
<line opacity="0.4" x1="333.094" y1="262" x2="333.094" y2="376" stroke="black" stroke-dasharray="2 2"/>
<path d="M414.688 271.619C419.638 268.761 425.737 268.761 430.688 271.619L464.484 291.131C469.434 293.989 472.484 299.271 472.484 304.987V306.012C472.484 311.729 469.434 317.011 464.484 319.869L430.688 339.381C425.737 342.239 419.638 342.239 414.688 339.381L380.891 319.869C375.941 317.011 372.891 311.729 372.891 306.012V304.987C372.891 299.271 375.941 293.989 380.891 291.131L414.688 271.619Z" fill="white"/>
<path d="M471.484 304.987C471.484 299.629 468.625 294.677 463.984 291.997L430.188 272.484C425.547 269.805 419.828 269.805 415.188 272.484L381.391 291.997C376.75 294.677 373.891 299.629 373.891 304.987V306.013C373.891 311.372 376.75 316.323 381.391 319.003L415.188 338.516C419.828 341.195 425.547 341.195 430.188 338.516L463.984 319.003C468.625 316.323 471.484 311.372 471.484 306.013V304.987ZM472.484 306.013L472.475 306.547C472.291 312.056 469.28 317.1 464.484 319.869L430.688 339.381C425.737 342.239 419.638 342.239 414.688 339.381L380.891 319.869C376.095 317.1 373.084 312.056 372.9 306.547L372.891 306.013V304.987C372.891 299.271 375.94 293.989 380.891 291.131L414.688 271.619C419.638 268.761 425.737 268.761 430.688 271.619L464.484 291.131C469.435 293.989 472.484 299.271 472.484 304.987V306.013Z" fill="black"/>
<path opacity="0.4" d="M468.889 298.844L423.188 325.229V340H422.188V325.312L422.156 325.366L376.257 298.866L376.757 298L422.188 324.229V324H423.188V324.075L468.389 297.979L468.889 298.844Z" fill="black"/>
<line opacity="0.4" x1="422.688" y1="175" x2="422.688" y2="295" stroke="black" stroke-dasharray="2 2"/>
<line opacity="0.4" x1="422.688" y1="342" x2="422.688" y2="456" stroke="black" stroke-dasharray="2 2"/>
<line x1="21" y1="144.5" x2="178" y2="144.5" stroke="black"/>
<path fill-rule="evenodd" clip-rule="evenodd" d="M8.00016 121.333C4.31826 121.333 1.3335 124.318 1.3335 128C1.3335 131.682 4.31826 134.667 8.00016 134.667C11.682 134.667 14.6668 131.682 14.6668 128C14.6668 124.318 11.682 121.333 8.00016 121.333ZM10.3872 126.65C10.562 126.436 10.5305 126.121 10.3168 125.947C10.103 125.772 9.78803 125.803 9.61316 126.017L6.96303 129.256L6.02038 128.313C5.82512 128.118 5.50854 128.118 5.31328 128.313C5.11802 128.509 5.11802 128.825 5.31328 129.02L6.64661 130.354C6.7465 130.454 6.88396 130.507 7.0251 130.5C7.16616 130.492 7.2977 130.426 7.38716 130.317L10.3872 126.65Z" fill="#00DBC1"/>
<path d="M24.344 132.192C23.544 132.192 22.86 132 22.292 131.616C21.724 131.232 21.288 130.708 20.984 130.044C20.688 129.372 20.54 128.608 20.54 127.752C20.54 126.896 20.692 126.132 20.996 125.46C21.3 124.788 21.736 124.26 22.304 123.876C22.88 123.484 23.568 123.288 24.368 123.288C25.048 123.288 25.62 123.412 26.084 123.66C26.556 123.908 26.928 124.244 27.2 124.668C27.48 125.092 27.672 125.568 27.776 126.096L26.696 126.168C26.592 125.616 26.36 125.168 26 124.824C25.64 124.472 25.096 124.296 24.368 124.296C23.72 124.296 23.192 124.456 22.784 124.776C22.384 125.096 22.088 125.52 21.896 126.048C21.712 126.568 21.62 127.136 21.62 127.752C21.62 128.4 21.716 128.984 21.908 129.504C22.1 130.016 22.4 130.424 22.808 130.728C23.216 131.032 23.736 131.184 24.368 131.184C24.872 131.184 25.308 131.072 25.676 130.848C26.044 130.616 26.328 130.308 26.528 129.924C26.728 129.54 26.832 129.124 26.84 128.676H24.392V127.692H27.8V132H27.032L26.96 130.032L27.104 130.2C27.008 130.584 26.824 130.928 26.552 131.232C26.28 131.528 25.952 131.764 25.568 131.94C25.192 132.108 24.784 132.192 24.344 132.192ZM31.9635 132.144C31.3635 132.144 30.8435 132.008 30.4035 131.736C29.9715 131.464 29.6355 131.08 29.3955 130.584C29.1635 130.08 29.0475 129.492 29.0475 128.82C29.0475 128.148 29.1635 127.564 29.3955 127.068C29.6355 126.572 29.9675 126.188 30.3915 125.916C30.8235 125.636 31.3315 125.496 31.9155 125.496C32.4675 125.496 32.9555 125.628 33.3795 125.892C33.8035 126.148 34.1315 126.524 34.3635 127.02C34.6035 127.516 34.7235 128.12 34.7235 128.832V129.132H30.1035C30.1435 129.812 30.3235 130.324 30.6435 130.668C30.9715 131.012 31.4115 131.184 31.9635 131.184C32.3795 131.184 32.7195 131.088 32.9835 130.896C33.2555 130.696 33.4435 130.436 33.5475 130.116L34.6275 130.2C34.4595 130.768 34.1395 131.236 33.6675 131.604C33.2035 131.964 32.6355 132.144 31.9635 132.144ZM30.1035 128.244H33.6195C33.5715 127.628 33.3915 127.176 33.0795 126.888C32.7755 126.6 32.3875 126.456 31.9155 126.456C31.4275 126.456 31.0235 126.608 30.7035 126.912C30.3915 127.208 30.1915 127.652 30.1035 128.244ZM38.5729 132.144C37.9889 132.144 37.4769 132.008 37.0369 131.736C36.5969 131.464 36.2569 131.08 36.0169 130.584C35.7769 130.08 35.6569 129.492 35.6569 128.82C35.6569 128.14 35.7769 127.552 36.0169 127.056C36.2569 126.56 36.5969 126.176 37.0369 125.904C37.4769 125.632 37.9889 125.496 38.5729 125.496C39.1569 125.496 39.6649 125.632 40.0969 125.904C40.5369 126.176 40.8769 126.56 41.1169 127.056C41.3569 127.552 41.4769 128.14 41.4769 128.82C41.4769 129.492 41.3569 130.08 41.1169 130.584C40.8769 131.08 40.5369 131.464 40.0969 131.736C39.6649 132.008 39.1569 132.144 38.5729 132.144ZM38.5729 131.184C39.1569 131.184 39.6089 130.976 39.9289 130.56C40.2569 130.136 40.4209 129.556 40.4209 128.82C40.4209 128.084 40.2569 127.508 39.9289 127.092C39.6089 126.668 39.1569 126.456 38.5729 126.456C37.9889 126.456 37.5329 126.668 37.2049 127.092C36.8769 127.508 36.7129 128.084 36.7129 128.82C36.7129 129.556 36.8769 130.136 37.2049 130.56C37.5329 130.976 37.9889 131.184 38.5729 131.184ZM44.1572 132C43.7892 132 43.4892 131.904 43.2572 131.712C43.0252 131.52 42.9092 131.216 42.9092 130.8V123.48H43.9172V130.716C43.9172 130.844 43.9492 130.944 44.0132 131.016C44.0852 131.08 44.1852 131.112 44.3132 131.112H44.8652V132H44.1572ZM48.5221 132.144C47.9381 132.144 47.4261 132.008 46.9861 131.736C46.5461 131.464 46.2061 131.08 45.9661 130.584C45.7261 130.08 45.6061 129.492 45.6061 128.82C45.6061 128.14 45.7261 127.552 45.9661 127.056C46.2061 126.56 46.5461 126.176 46.9861 125.904C47.4261 125.632 47.9381 125.496 48.5221 125.496C49.1061 125.496 49.6141 125.632 50.0461 125.904C50.4861 126.176 50.8261 126.56 51.0661 127.056C51.3061 127.552 51.4261 128.14 51.4261 128.82C51.4261 129.492 51.3061 130.08 51.0661 130.584C50.8261 131.08 50.4861 131.464 50.0461 131.736C49.6141 132.008 49.1061 132.144 48.5221 132.144ZM48.5221 131.184C49.1061 131.184 49.5581 130.976 49.8781 130.56C50.2061 130.136 50.3701 129.556 50.3701 128.82C50.3701 128.084 50.2061 127.508 49.8781 127.092C49.5581 126.668 49.1061 126.456 48.5221 126.456C47.9381 126.456 47.4821 126.668 47.1541 127.092C46.8261 127.508 46.6621 128.084 46.6621 128.82C46.6621 129.556 46.8261 130.136 47.1541 130.56C47.4821 130.976 47.9381 131.184 48.5221 131.184ZM55.2838 132.144C54.6918 132.144 54.1758 132.008 53.7358 131.736C53.3038 131.464 52.9678 131.08 52.7278 130.584C52.4878 130.08 52.3678 129.492 52.3678 128.82C52.3678 128.148 52.4878 127.564 52.7278 127.068C52.9678 126.572 53.3038 126.188 53.7358 125.916C54.1758 125.636 54.6918 125.496 55.2838 125.496C55.7718 125.496 56.2038 125.584 56.5798 125.76C56.9638 125.928 57.2758 126.176 57.5158 126.504C57.7558 126.832 57.9118 127.232 57.9838 127.704L56.9278 127.776C56.8558 127.352 56.6718 127.028 56.3758 126.804C56.0798 126.572 55.7158 126.456 55.2838 126.456C54.6998 126.456 54.2438 126.668 53.9158 127.092C53.5878 127.508 53.4238 128.084 53.4238 128.82C53.4238 129.556 53.5878 130.136 53.9158 130.56C54.2438 130.976 54.6998 131.184 55.2838 131.184C55.7158 131.184 56.0798 131.064 56.3758 130.824C56.6718 130.584 56.8558 130.224 56.9278 129.744L57.9838 129.816C57.9118 130.288 57.7558 130.7 57.5158 131.052C57.2758 131.396 56.9638 131.664 56.5798 131.856C56.2038 132.048 55.7718 132.144 55.2838 132.144ZM61.1135 132.144C60.4575 132.144 59.9335 131.992 59.5415 131.688C59.1575 131.384 58.9655 130.96 58.9655 130.416C58.9655 129.872 59.1255 129.444 59.4455 129.132C59.7655 128.82 60.2735 128.6 60.9695 128.472L63.2255 128.052C63.2255 127.516 63.0975 127.116 62.8415 126.852C62.5935 126.588 62.2175 126.456 61.7135 126.456C61.2735 126.456 60.9255 126.556 60.6695 126.756C60.4135 126.948 60.2375 127.228 60.1415 127.596L59.0735 127.512C59.1935 126.912 59.4815 126.428 59.9375 126.06C60.4015 125.684 60.9935 125.496 61.7135 125.496C62.5295 125.496 63.1535 125.728 63.5855 126.192C64.0175 126.648 64.2335 127.28 64.2335 128.088V130.716C64.2335 130.86 64.2575 130.964 64.3055 131.028C64.3615 131.084 64.4495 131.112 64.5695 131.112H64.8215V132C64.7895 132.008 64.7375 132.012 64.6655 132.012C64.5935 132.02 64.5175 132.024 64.4375 132.024C64.1495 132.024 63.9135 131.98 63.7295 131.892C63.5535 131.796 63.4255 131.652 63.3455 131.46C63.2655 131.26 63.2255 131 63.2255 130.68L63.3455 130.704C63.2895 130.976 63.1535 131.224 62.9375 131.448C62.7215 131.664 62.4535 131.836 62.1335 131.964C61.8135 132.084 61.4735 132.144 61.1135 132.144ZM61.2095 131.256C61.6335 131.256 61.9935 131.176 62.2895 131.016C62.5935 130.848 62.8255 130.624 62.9855 130.344C63.1455 130.056 63.2255 129.736 63.2255 129.384V128.928L61.1615 129.312C60.7295 129.392 60.4295 129.516 60.2615 129.684C60.1015 129.844 60.0215 130.056 60.0215 130.32C60.0215 130.616 60.1255 130.848 60.3335 131.016C60.5495 131.176 60.8415 131.256 61.2095 131.256ZM67.9716 132C67.3956 132 66.9676 131.868 66.6876 131.604C66.4156 131.34 66.2796 130.928 66.2796 130.368V124.152H67.2876V130.344C67.2876 130.632 67.3516 130.832 67.4796 130.944C67.6076 131.056 67.8036 131.112 68.0676 131.112H68.9796V132H67.9716ZM65.3436 126.528V125.64H68.9796V126.528H65.3436ZM70.2725 132V125.64H71.2805V132H70.2725ZM70.2485 124.644V123.468H71.3045V124.644H70.2485ZM75.569 132.144C74.985 132.144 74.473 132.008 74.033 131.736C73.593 131.464 73.253 131.08 73.013 130.584C72.773 130.08 72.653 129.492 72.653 128.82C72.653 128.14 72.773 127.552 73.013 127.056C73.253 126.56 73.593 126.176 74.033 125.904C74.473 125.632 74.985 125.496 75.569 125.496C76.153 125.496 76.661 125.632 77.093 125.904C77.533 126.176 77.873 126.56 78.113 127.056C78.353 127.552 78.473 128.14 78.473 128.82C78.473 129.492 78.353 130.08 78.113 130.584C77.873 131.08 77.533 131.464 77.093 131.736C76.661 132.008 76.153 132.144 75.569 132.144ZM75.569 131.184C76.153 131.184 76.605 130.976 76.925 130.56C77.253 130.136 77.417 129.556 77.417 128.82C77.417 128.084 77.253 127.508 76.925 127.092C76.605 126.668 76.153 126.456 75.569 126.456C74.985 126.456 74.529 126.668 74.201 127.092C73.873 127.508 73.709 128.084 73.709 128.82C73.709 129.556 73.873 130.136 74.201 130.56C74.529 130.976 74.985 131.184 75.569 131.184ZM79.8467 132V125.64H80.7707L80.8067 127.26L80.6867 127.152C80.7667 126.776 80.9067 126.468 81.1067 126.228C81.3067 125.98 81.5467 125.796 81.8267 125.676C82.1147 125.556 82.4227 125.496 82.7507 125.496C83.2387 125.496 83.6387 125.604 83.9507 125.82C84.2707 126.036 84.5067 126.328 84.6587 126.696C84.8187 127.056 84.8987 127.46 84.8987 127.908V132H83.8907V128.196C83.8907 127.804 83.8427 127.476 83.7467 127.212C83.6587 126.94 83.5147 126.736 83.3147 126.6C83.1147 126.456 82.8547 126.384 82.5347 126.384C82.0467 126.384 81.6427 126.54 81.3227 126.852C81.0107 127.156 80.8547 127.604 80.8547 128.196V132H79.8467Z" fill="#312925"/>
<line x1="21" y1="227.5" x2="261" y2="227.5" stroke="black"/>
<path fill-rule="evenodd" clip-rule="evenodd" d="M8.00016 204.333C4.31826 204.333 1.3335 207.318 1.3335 211C1.3335 214.682 4.31826 217.667 8.00016 217.667C11.682 217.667 14.6668 214.682 14.6668 211C14.6668 207.318 11.682 204.333 8.00016 204.333ZM10.3872 209.65C10.562 209.436 10.5305 209.121 10.3168 208.947C10.103 208.772 9.78803 208.803 9.61316 209.017L6.96303 212.256L6.02038 211.313C5.82512 211.118 5.50854 211.118 5.31328 211.313C5.11802 211.509 5.11802 211.825 5.31328 212.02L6.64661 213.354C6.7465 213.454 6.88396 213.507 7.0251 213.5C7.16616 213.492 7.2977 213.426 7.38716 213.317L10.3872 209.65Z" fill="#00DBC1"/>
<path d="M21.104 215V206.48H22.568L26.78 213.968V206.48H27.812V215H26.276L22.136 207.656V215H21.104ZM32.2448 215.144C31.6448 215.144 31.1248 215.008 30.6848 214.736C30.2528 214.464 29.9168 214.08 29.6768 213.584C29.4448 213.08 29.3288 212.492 29.3288 211.82C29.3288 211.148 29.4448 210.564 29.6768 210.068C29.9168 209.572 30.2488 209.188 30.6728 208.916C31.1048 208.636 31.6128 208.496 32.1968 208.496C32.7488 208.496 33.2368 208.628 33.6608 208.892C34.0848 209.148 34.4128 209.524 34.6448 210.02C34.8848 210.516 35.0048 211.12 35.0048 211.832V212.132H30.3848C30.4248 212.812 30.6048 213.324 30.9248 213.668C31.2528 214.012 31.6928 214.184 32.2448 214.184C32.6608 214.184 33.0008 214.088 33.2648 213.896C33.5368 213.696 33.7248 213.436 33.8288 213.116L34.9088 213.2C34.7408 213.768 34.4208 214.236 33.9488 214.604C33.4848 214.964 32.9168 215.144 32.2448 215.144ZM30.3848 211.244H33.9008C33.8528 210.628 33.6728 210.176 33.3608 209.888C33.0568 209.6 32.6688 209.456 32.1968 209.456C31.7088 209.456 31.3048 209.608 30.9848 209.912C30.6728 210.208 30.4728 210.652 30.3848 211.244ZM38.4521 215C37.8761 215 37.4481 214.868 37.1681 214.604C36.8961 214.34 36.7601 213.928 36.7601 213.368V207.152H37.7681V213.344C37.7681 213.632 37.8321 213.832 37.9601 213.944C38.0881 214.056 38.2841 214.112 38.5481 214.112H39.4601V215H38.4521ZM35.8241 209.528V208.64H39.4601V209.528H35.8241ZM41.9781 215L40.0101 208.64H41.1141L42.6021 213.944L44.1141 208.64H45.1941L46.7061 213.944L48.2061 208.64H49.3101L47.3421 215H46.0701L44.6541 210.164L43.2381 215H41.9781ZM52.7057 215.144C52.1217 215.144 51.6097 215.008 51.1697 214.736C50.7297 214.464 50.3897 214.08 50.1497 213.584C49.9097 213.08 49.7897 212.492 49.7897 211.82C49.7897 211.14 49.9097 210.552 50.1497 210.056C50.3897 209.56 50.7297 209.176 51.1697 208.904C51.6097 208.632 52.1217 208.496 52.7057 208.496C53.2897 208.496 53.7977 208.632 54.2297 208.904C54.6697 209.176 55.0097 209.56 55.2497 210.056C55.4897 210.552 55.6097 211.14 55.6097 211.82C55.6097 212.492 55.4897 213.08 55.2497 213.584C55.0097 214.08 54.6697 214.464 54.2297 214.736C53.7977 215.008 53.2897 215.144 52.7057 215.144ZM52.7057 214.184C53.2897 214.184 53.7417 213.976 54.0617 213.56C54.3897 213.136 54.5537 212.556 54.5537 211.82C54.5537 211.084 54.3897 210.508 54.0617 210.092C53.7417 209.668 53.2897 209.456 52.7057 209.456C52.1217 209.456 51.6657 209.668 51.3377 210.092C51.0097 210.508 50.8457 211.084 50.8457 211.82C50.8457 212.556 51.0097 213.136 51.3377 213.56C51.6657 213.976 52.1217 214.184 52.7057 214.184ZM56.9834 215V208.64H57.8714L57.9194 210.248L57.8234 210.212C57.9034 209.668 58.0754 209.272 58.3394 209.024C58.6114 208.768 58.9714 208.64 59.4194 208.64H60.0434V209.6H59.4314C59.1114 209.6 58.8434 209.66 58.6274 209.78C58.4194 209.892 58.2594 210.064 58.1474 210.296C58.0434 210.52 57.9914 210.808 57.9914 211.16V215H56.9834ZM61.167 215V206.48H62.175V212.06L65.271 208.64H66.615L64.107 211.34L66.723 215H65.499L63.423 212.024L62.175 213.344V215H61.167Z" fill="#312925"/>
<line x1="21" y1="314.5" x2="359" y2="314.5" stroke="black"/>
<path fill-rule="evenodd" clip-rule="evenodd" d="M8.00016 291.333C4.31826 291.333 1.3335 294.318 1.3335 298C1.3335 301.682 4.31826 304.667 8.00016 304.667C11.682 304.667 14.6668 301.682 14.6668 298C14.6668 294.318 11.682 291.333 8.00016 291.333ZM10.3872 296.65C10.562 296.436 10.5305 296.121 10.3168 295.947C10.103 295.772 9.78803 295.803 9.61316 296.017L6.96303 299.256L6.02038 298.313C5.82512 298.118 5.50854 298.118 5.31328 298.313C5.11802 298.509 5.11802 298.825 5.31328 299.02L6.64661 300.354C6.7465 300.454 6.88396 300.507 7.0251 300.5C7.16616 300.492 7.2977 300.426 7.38716 300.317L10.3872 296.65Z" fill="#00DBC1"/>
<path d="M22.796 302V294.488H20.144V293.48H26.48V294.488H23.828V302H22.796ZM29.1042 302.144C28.5042 302.144 27.9842 302.008 27.5442 301.736C27.1122 301.464 26.7762 301.08 26.5362 300.584C26.3042 300.08 26.1882 299.492 26.1882 298.82C26.1882 298.148 26.3042 297.564 26.5362 297.068C26.7762 296.572 27.1082 296.188 27.5322 295.916C27.9642 295.636 28.4722 295.496 29.0562 295.496C29.6082 295.496 30.0962 295.628 30.5202 295.892C30.9442 296.148 31.2722 296.524 31.5042 297.02C31.7442 297.516 31.8642 298.12 31.8642 298.832V299.132H27.2442C27.2842 299.812 27.4642 300.324 27.7842 300.668C28.1122 301.012 28.5522 301.184 29.1042 301.184C29.5202 301.184 29.8602 301.088 30.1242 300.896C30.3962 300.696 30.5842 300.436 30.6882 300.116L31.7682 300.2C31.6002 300.768 31.2802 301.236 30.8082 301.604C30.3442 301.964 29.7762 302.144 29.1042 302.144ZM27.2442 298.244H30.7602C30.7122 297.628 30.5322 297.176 30.2202 296.888C29.9162 296.6 29.5282 296.456 29.0562 296.456C28.5682 296.456 28.1642 296.608 27.8442 296.912C27.5322 297.208 27.3322 297.652 27.2442 298.244ZM35.7135 302.144C35.1215 302.144 34.6055 302.008 34.1655 301.736C33.7335 301.464 33.3975 301.08 33.1575 300.584C32.9175 300.08 32.7975 299.492 32.7975 298.82C32.7975 298.148 32.9175 297.564 33.1575 297.068C33.3975 296.572 33.7335 296.188 34.1655 295.916C34.6055 295.636 35.1215 295.496 35.7135 295.496C36.2015 295.496 36.6335 295.584 37.0095 295.76C37.3935 295.928 37.7055 296.176 37.9455 296.504C38.1855 296.832 38.3415 297.232 38.4135 297.704L37.3575 297.776C37.2855 297.352 37.1015 297.028 36.8055 296.804C36.5095 296.572 36.1455 296.456 35.7135 296.456C35.1295 296.456 34.6735 296.668 34.3455 297.092C34.0175 297.508 33.8535 298.084 33.8535 298.82C33.8535 299.556 34.0175 300.136 34.3455 300.56C34.6735 300.976 35.1295 301.184 35.7135 301.184C36.1455 301.184 36.5095 301.064 36.8055 300.824C37.1015 300.584 37.2855 300.224 37.3575 299.744L38.4135 299.816C38.3415 300.288 38.1855 300.7 37.9455 301.052C37.7055 301.396 37.3935 301.664 37.0095 301.856C36.6335 302.048 36.2015 302.144 35.7135 302.144ZM39.6631 302V293.48H40.6711V297.044L40.5511 297.02C40.6311 296.668 40.7671 296.38 40.9591 296.156C41.1511 295.932 41.3871 295.768 41.6671 295.664C41.9471 295.552 42.2551 295.496 42.5911 295.496C43.0471 295.496 43.4311 295.6 43.7431 295.808C44.0631 296.008 44.3031 296.292 44.4631 296.66C44.6311 297.02 44.7151 297.436 44.7151 297.908V302H43.7071V298.196C43.7071 297.58 43.5951 297.124 43.3711 296.828C43.1551 296.532 42.8231 296.384 42.3751 296.384C41.8631 296.384 41.4511 296.54 41.1391 296.852C40.8271 297.164 40.6711 297.616 40.6711 298.208V302H39.6631ZM46.4014 302V295.64H47.3254L47.3614 297.26L47.2414 297.152C47.3214 296.776 47.4614 296.468 47.6614 296.228C47.8614 295.98 48.1014 295.796 48.3814 295.676C48.6694 295.556 48.9774 295.496 49.3054 295.496C49.7934 295.496 50.1934 295.604 50.5054 295.82C50.8254 296.036 51.0614 296.328 51.2134 296.696C51.3734 297.056 51.4534 297.46 51.4534 297.908V302H50.4454V298.196C50.4454 297.804 50.3974 297.476 50.3014 297.212C50.2134 296.94 50.0694 296.736 49.8694 296.6C49.6694 296.456 49.4094 296.384 49.0894 296.384C48.6014 296.384 48.1974 296.54 47.8774 296.852C47.5654 297.156 47.4094 297.604 47.4094 298.196V302H46.4014ZM53.2569 302V295.64H54.2649V302H53.2569ZM53.2329 294.644V293.468H54.2889V294.644H53.2329ZM58.5534 302.144C57.9614 302.144 57.4454 302.008 57.0054 301.736C56.5734 301.464 56.2374 301.08 55.9974 300.584C55.7574 300.08 55.6374 299.492 55.6374 298.82C55.6374 298.148 55.7574 297.564 55.9974 297.068C56.2374 296.572 56.5734 296.188 57.0054 295.916C57.4454 295.636 57.9614 295.496 58.5534 295.496C59.0414 295.496 59.4734 295.584 59.8494 295.76C60.2334 295.928 60.5454 296.176 60.7854 296.504C61.0254 296.832 61.1814 297.232 61.2534 297.704L60.1974 297.776C60.1254 297.352 59.9414 297.028 59.6454 296.804C59.3494 296.572 58.9854 296.456 58.5534 296.456C57.9694 296.456 57.5134 296.668 57.1854 297.092C56.8574 297.508 56.6934 298.084 56.6934 298.82C56.6934 299.556 56.8574 300.136 57.1854 300.56C57.5134 300.976 57.9694 301.184 58.5534 301.184C58.9854 301.184 59.3494 301.064 59.6454 300.824C59.9414 300.584 60.1254 300.224 60.1974 299.744L61.2534 299.816C61.1814 300.288 61.0254 300.7 60.7854 301.052C60.5454 301.396 60.2334 301.664 59.8494 301.856C59.4734 302.048 59.0414 302.144 58.5534 302.144ZM64.383 302.144C63.727 302.144 63.203 301.992 62.811 301.688C62.427 301.384 62.235 300.96 62.235 300.416C62.235 299.872 62.395 299.444 62.715 299.132C63.035 298.82 63.543 298.6 64.239 298.472L66.495 298.052C66.495 297.516 66.367 297.116 66.111 296.852C65.863 296.588 65.487 296.456 64.983 296.456C64.543 296.456 64.195 296.556 63.939 296.756C63.683 296.948 63.507 297.228 63.411 297.596L62.343 297.512C62.463 296.912 62.751 296.428 63.207 296.06C63.671 295.684 64.263 295.496 64.983 295.496C65.799 295.496 66.423 295.728 66.855 296.192C67.287 296.648 67.503 297.28 67.503 298.088V300.716C67.503 300.86 67.527 300.964 67.575 301.028C67.631 301.084 67.719 301.112 67.839 301.112H68.091V302C68.059 302.008 68.007 302.012 67.935 302.012C67.863 302.02 67.787 302.024 67.707 302.024C67.419 302.024 67.183 301.98 66.999 301.892C66.823 301.796 66.695 301.652 66.615 301.46C66.535 301.26 66.495 301 66.495 300.68L66.615 300.704C66.559 300.976 66.423 301.224 66.207 301.448C65.991 301.664 65.723 301.836 65.403 301.964C65.083 302.084 64.743 302.144 64.383 302.144ZM64.479 301.256C64.903 301.256 65.263 301.176 65.559 301.016C65.863 300.848 66.095 300.624 66.255 300.344C66.415 300.056 66.495 299.736 66.495 299.384V298.928L64.431 299.312C63.999 299.392 63.699 299.516 63.531 299.684C63.371 299.844 63.291 300.056 63.291 300.32C63.291 300.616 63.395 300.848 63.603 301.016C63.819 301.176 64.111 301.256 64.479 301.256ZM70.4072 302C70.0392 302 69.7392 301.904 69.5072 301.712C69.2752 301.52 69.1592 301.216 69.1592 300.8V293.48H70.1672V300.716C70.1672 300.844 70.1992 300.944 70.2632 301.016C70.3352 301.08 70.4352 301.112 70.5632 301.112H71.1152V302H70.4072Z" fill="#312925"/>
</svg>
