<svg width="666" height="456" viewBox="0 0 666 456" fill="none" xmlns="http://www.w3.org/2000/svg">
<rect x="137" y="73" width="392" height="303" rx="17" fill="#F1F6FE"/>
<path d="M334.104 310V301.48H336.744C338.056 301.48 339.064 301.852 339.768 302.596C340.48 303.332 340.836 304.384 340.836 305.752C340.836 307.112 340.488 308.16 339.792 308.896C339.096 309.632 338.104 310 336.816 310H334.104ZM335.136 308.992H336.744C337.744 308.992 338.496 308.724 339 308.188C339.504 307.644 339.756 306.832 339.756 305.752C339.756 304.656 339.504 303.84 339 303.304C338.496 302.76 337.744 302.488 336.744 302.488H335.136V308.992ZM344.172 310.144C343.516 310.144 342.992 309.992 342.6 309.688C342.216 309.384 342.024 308.96 342.024 308.416C342.024 307.872 342.184 307.444 342.504 307.132C342.824 306.82 343.332 306.6 344.028 306.472L346.284 306.052C346.284 305.516 346.156 305.116 345.9 304.852C345.652 304.588 345.276 304.456 344.772 304.456C344.332 304.456 343.984 304.556 343.728 304.756C343.472 304.948 343.296 305.228 343.2 305.596L342.132 305.512C342.252 304.912 342.54 304.428 342.996 304.06C343.46 303.684 344.052 303.496 344.772 303.496C345.588 303.496 346.212 303.728 346.644 304.192C347.076 304.648 347.292 305.28 347.292 306.088V308.716C347.292 308.86 347.316 308.964 347.364 309.028C347.42 309.084 347.508 309.112 347.628 309.112H347.88V310C347.848 310.008 347.796 310.012 347.724 310.012C347.652 310.02 347.576 310.024 347.496 310.024C347.208 310.024 346.972 309.98 346.788 309.892C346.612 309.796 346.484 309.652 346.404 309.46C346.324 309.26 346.284 309 346.284 308.68L346.404 308.704C346.348 308.976 346.212 309.224 345.996 309.448C345.78 309.664 345.512 309.836 345.192 309.964C344.872 310.084 344.532 310.144 344.172 310.144ZM344.268 309.256C344.692 309.256 345.052 309.176 345.348 309.016C345.652 308.848 345.884 308.624 346.044 308.344C346.204 308.056 346.284 307.736 346.284 307.384V306.928L344.22 307.312C343.788 307.392 343.488 307.516 343.32 307.684C343.16 307.844 343.08 308.056 343.08 308.32C343.08 308.616 343.184 308.848 343.392 309.016C343.608 309.176 343.9 309.256 344.268 309.256ZM351.03 310C350.454 310 350.026 309.868 349.746 309.604C349.474 309.34 349.338 308.928 349.338 308.368V302.152H350.346V308.344C350.346 308.632 350.41 308.832 350.538 308.944C350.666 309.056 350.862 309.112 351.126 309.112H352.038V310H351.03ZM348.402 304.528V303.64H352.038V304.528H348.402ZM355 310.144C354.344 310.144 353.82 309.992 353.428 309.688C353.044 309.384 352.852 308.96 352.852 308.416C352.852 307.872 353.012 307.444 353.332 307.132C353.652 306.82 354.16 306.6 354.856 306.472L357.112 306.052C357.112 305.516 356.984 305.116 356.728 304.852C356.48 304.588 356.104 304.456 355.6 304.456C355.16 304.456 354.812 304.556 354.556 304.756C354.3 304.948 354.124 305.228 354.028 305.596L352.96 305.512C353.08 304.912 353.368 304.428 353.824 304.06C354.288 303.684 354.88 303.496 355.6 303.496C356.416 303.496 357.04 303.728 357.472 304.192C357.904 304.648 358.12 305.28 358.12 306.088V308.716C358.12 308.86 358.144 308.964 358.192 309.028C358.248 309.084 358.336 309.112 358.456 309.112H358.708V310C358.676 310.008 358.624 310.012 358.552 310.012C358.48 310.02 358.404 310.024 358.324 310.024C358.036 310.024 357.8 309.98 357.616 309.892C357.44 309.796 357.312 309.652 357.232 309.46C357.152 309.26 357.112 309 357.112 308.68L357.232 308.704C357.176 308.976 357.04 309.224 356.824 309.448C356.608 309.664 356.34 309.836 356.02 309.964C355.7 310.084 355.36 310.144 355 310.144ZM355.096 309.256C355.52 309.256 355.88 309.176 356.176 309.016C356.48 308.848 356.712 308.624 356.872 308.344C357.032 308.056 357.112 307.736 357.112 307.384V306.928L355.048 307.312C354.616 307.392 354.316 307.516 354.148 307.684C353.988 307.844 353.908 308.056 353.908 308.32C353.908 308.616 354.012 308.848 354.22 309.016C354.436 309.176 354.728 309.256 355.096 309.256ZM362.716 310.144C362.276 310.144 361.884 310.048 361.54 309.856C361.196 309.656 360.932 309.384 360.748 309.04L360.712 310H359.8V301.48H360.808V304.528C360.968 304.264 361.216 304.028 361.552 303.82C361.888 303.604 362.276 303.496 362.716 303.496C363.276 303.496 363.76 303.632 364.168 303.904C364.576 304.176 364.892 304.56 365.116 305.056C365.34 305.552 365.452 306.14 365.452 306.82C365.452 307.5 365.34 308.088 365.116 308.584C364.892 309.08 364.576 309.464 364.168 309.736C363.76 310.008 363.276 310.144 362.716 310.144ZM362.656 309.184C363.192 309.184 363.616 308.972 363.928 308.548C364.24 308.124 364.396 307.548 364.396 306.82C364.396 306.084 364.24 305.508 363.928 305.092C363.616 304.668 363.2 304.456 362.68 304.456C362.288 304.456 361.952 304.552 361.672 304.744C361.392 304.928 361.176 305.196 361.024 305.548C360.88 305.9 360.808 306.324 360.808 306.82C360.808 307.3 360.88 307.72 361.024 308.08C361.176 308.432 361.388 308.704 361.66 308.896C361.94 309.088 362.272 309.184 362.656 309.184ZM368.699 310.144C368.043 310.144 367.519 309.992 367.127 309.688C366.743 309.384 366.551 308.96 366.551 308.416C366.551 307.872 366.711 307.444 367.031 307.132C367.351 306.82 367.859 306.6 368.555 306.472L370.811 306.052C370.811 305.516 370.683 305.116 370.427 304.852C370.179 304.588 369.803 304.456 369.299 304.456C368.859 304.456 368.511 304.556 368.255 304.756C367.999 304.948 367.823 305.228 367.727 305.596L366.659 305.512C366.779 304.912 367.067 304.428 367.523 304.06C367.987 303.684 368.579 303.496 369.299 303.496C370.115 303.496 370.739 303.728 371.171 304.192C371.603 304.648 371.819 305.28 371.819 306.088V308.716C371.819 308.86 371.843 308.964 371.891 309.028C371.947 309.084 372.035 309.112 372.155 309.112H372.407V310C372.375 310.008 372.323 310.012 372.251 310.012C372.179 310.02 372.103 310.024 372.023 310.024C371.735 310.024 371.499 309.98 371.315 309.892C371.139 309.796 371.011 309.652 370.931 309.46C370.851 309.26 370.811 309 370.811 308.68L370.931 308.704C370.875 308.976 370.739 309.224 370.523 309.448C370.307 309.664 370.039 309.836 369.719 309.964C369.399 310.084 369.059 310.144 368.699 310.144ZM368.795 309.256C369.219 309.256 369.579 309.176 369.875 309.016C370.179 308.848 370.411 308.624 370.571 308.344C370.731 308.056 370.811 307.736 370.811 307.384V306.928L368.747 307.312C368.315 307.392 368.015 307.516 367.847 307.684C367.687 307.844 367.607 308.056 367.607 308.32C367.607 308.616 367.711 308.848 367.919 309.016C368.135 309.176 368.427 309.256 368.795 309.256ZM375.839 310.144C375.271 310.144 374.787 310.052 374.387 309.868C373.995 309.684 373.687 309.432 373.463 309.112C373.247 308.784 373.123 308.412 373.091 307.996L374.146 307.924C374.211 308.308 374.375 308.616 374.639 308.848C374.903 309.072 375.303 309.184 375.839 309.184C376.271 309.184 376.615 309.116 376.871 308.98C377.135 308.836 377.267 308.608 377.267 308.296C377.267 308.128 377.227 307.988 377.147 307.876C377.067 307.764 376.911 307.668 376.679 307.588C376.447 307.5 376.103 307.416 375.646 307.336C375.039 307.224 374.559 307.088 374.207 306.928C373.863 306.76 373.615 306.556 373.463 306.316C373.319 306.068 373.247 305.776 373.247 305.44C373.247 304.872 373.455 304.408 373.871 304.048C374.287 303.68 374.879 303.496 375.646 303.496C376.167 303.496 376.603 303.592 376.955 303.784C377.315 303.968 377.595 304.216 377.795 304.528C378.003 304.832 378.139 305.168 378.203 305.536L377.147 305.608C377.099 305.384 377.011 305.188 376.883 305.02C376.755 304.844 376.587 304.708 376.379 304.612C376.171 304.508 375.923 304.456 375.635 304.456C375.179 304.456 374.843 304.544 374.627 304.72C374.411 304.896 374.303 305.12 374.303 305.392C374.303 305.6 374.351 305.772 374.447 305.908C374.551 306.036 374.715 306.144 374.939 306.232C375.163 306.312 375.463 306.384 375.839 306.448C376.487 306.56 376.991 306.696 377.351 306.856C377.711 307.016 377.963 307.212 378.107 307.444C378.251 307.676 378.323 307.96 378.323 308.296C378.323 308.688 378.211 309.024 377.987 309.304C377.771 309.576 377.475 309.784 377.099 309.928C376.731 310.072 376.311 310.144 375.839 310.144ZM382.182 310.144C381.582 310.144 381.062 310.008 380.622 309.736C380.19 309.464 379.854 309.08 379.614 308.584C379.382 308.08 379.266 307.492 379.266 306.82C379.266 306.148 379.382 305.564 379.614 305.068C379.854 304.572 380.186 304.188 380.61 303.916C381.042 303.636 381.55 303.496 382.134 303.496C382.686 303.496 383.174 303.628 383.598 303.892C384.022 304.148 384.35 304.524 384.582 305.02C384.822 305.516 384.942 306.12 384.942 306.832V307.132H380.322C380.362 307.812 380.542 308.324 380.862 308.668C381.19 309.012 381.63 309.184 382.182 309.184C382.598 309.184 382.938 309.088 383.202 308.896C383.474 308.696 383.662 308.436 383.766 308.116L384.846 308.2C384.678 308.768 384.358 309.236 383.886 309.604C383.422 309.964 382.854 310.144 382.182 310.144ZM380.322 306.244H383.838C383.79 305.628 383.61 305.176 383.298 304.888C382.994 304.6 382.606 304.456 382.134 304.456C381.646 304.456 381.242 304.608 380.922 304.912C380.61 305.208 380.41 305.652 380.322 306.244ZM389.425 310V303.64H390.349L390.385 305.248L390.241 305.2C390.313 304.848 390.437 304.548 390.613 304.3C390.797 304.044 391.021 303.848 391.285 303.712C391.549 303.568 391.841 303.496 392.161 303.496C392.713 303.496 393.161 303.648 393.505 303.952C393.857 304.256 394.077 304.68 394.165 305.224L393.973 305.212C394.037 304.844 394.153 304.536 394.321 304.288C394.497 304.032 394.721 303.836 394.993 303.7C395.265 303.564 395.577 303.496 395.929 303.496C396.385 303.496 396.769 303.592 397.081 303.784C397.393 303.968 397.629 304.24 397.789 304.6C397.949 304.96 398.029 305.396 398.029 305.908V310H397.021V306.124C397.021 305.548 396.909 305.116 396.685 304.828C396.461 304.532 396.129 304.384 395.689 304.384C395.393 304.384 395.133 304.456 394.909 304.6C394.693 304.744 394.525 304.952 394.405 305.224C394.285 305.488 394.225 305.812 394.225 306.196V310H393.217V306.196C393.217 305.628 393.117 305.184 392.917 304.864C392.717 304.544 392.381 304.384 391.909 304.384C391.613 304.384 391.353 304.456 391.129 304.6C390.913 304.744 390.741 304.952 390.613 305.224C390.493 305.496 390.433 305.82 390.433 306.196V310H389.425ZM401.547 310.144C400.891 310.144 400.367 309.992 399.975 309.688C399.591 309.384 399.399 308.96 399.399 308.416C399.399 307.872 399.559 307.444 399.879 307.132C400.199 306.82 400.707 306.6 401.403 306.472L403.659 306.052C403.659 305.516 403.531 305.116 403.275 304.852C403.027 304.588 402.651 304.456 402.147 304.456C401.707 304.456 401.359 304.556 401.103 304.756C400.847 304.948 400.671 305.228 400.575 305.596L399.507 305.512C399.627 304.912 399.915 304.428 400.371 304.06C400.835 303.684 401.427 303.496 402.147 303.496C402.963 303.496 403.587 303.728 404.019 304.192C404.451 304.648 404.667 305.28 404.667 306.088V308.716C404.667 308.86 404.691 308.964 404.739 309.028C404.795 309.084 404.883 309.112 405.003 309.112H405.255V310C405.223 310.008 405.171 310.012 405.099 310.012C405.027 310.02 404.951 310.024 404.871 310.024C404.583 310.024 404.347 309.98 404.163 309.892C403.987 309.796 403.859 309.652 403.779 309.46C403.699 309.26 403.659 309 403.659 308.68L403.779 308.704C403.723 308.976 403.587 309.224 403.371 309.448C403.155 309.664 402.887 309.836 402.567 309.964C402.247 310.084 401.907 310.144 401.547 310.144ZM401.643 309.256C402.067 309.256 402.427 309.176 402.723 309.016C403.027 308.848 403.259 308.624 403.419 308.344C403.579 308.056 403.659 307.736 403.659 307.384V306.928L401.595 307.312C401.163 307.392 400.863 307.516 400.695 307.684C400.535 307.844 400.455 308.056 400.455 308.32C400.455 308.616 400.559 308.848 400.767 309.016C400.983 309.176 401.275 309.256 401.643 309.256ZM406.394 311.8V303.64H407.33L407.354 305.008L407.21 304.936C407.37 304.464 407.634 304.108 408.002 303.868C408.378 303.62 408.81 303.496 409.298 303.496C409.93 303.496 410.446 303.652 410.846 303.964C411.254 304.276 411.554 304.684 411.746 305.188C411.946 305.692 412.046 306.236 412.046 306.82C412.046 307.404 411.946 307.948 411.746 308.452C411.554 308.956 411.254 309.364 410.846 309.676C410.446 309.988 409.93 310.144 409.298 310.144C408.97 310.144 408.662 310.088 408.374 309.976C408.094 309.864 407.854 309.708 407.654 309.508C407.462 309.308 407.33 309.072 407.258 308.8L407.402 308.632V311.8H406.394ZM409.202 309.184C409.754 309.184 410.19 308.976 410.51 308.56C410.83 308.144 410.99 307.564 410.99 306.82C410.99 306.076 410.83 305.496 410.51 305.08C410.19 304.664 409.754 304.456 409.202 304.456C408.834 304.456 408.514 304.544 408.242 304.72C407.978 304.896 407.77 305.16 407.618 305.512C407.474 305.864 407.402 306.3 407.402 306.82C407.402 307.34 407.474 307.776 407.618 308.128C407.762 308.48 407.97 308.744 408.242 308.92C408.514 309.096 408.834 309.184 409.202 309.184ZM413.413 311.8V303.64H414.349L414.373 305.008L414.229 304.936C414.389 304.464 414.653 304.108 415.021 303.868C415.397 303.62 415.829 303.496 416.317 303.496C416.949 303.496 417.465 303.652 417.865 303.964C418.273 304.276 418.573 304.684 418.765 305.188C418.965 305.692 419.065 306.236 419.065 306.82C419.065 307.404 418.965 307.948 418.765 308.452C418.573 308.956 418.273 309.364 417.865 309.676C417.465 309.988 416.949 310.144 416.317 310.144C415.989 310.144 415.681 310.088 415.393 309.976C415.113 309.864 414.873 309.708 414.673 309.508C414.481 309.308 414.349 309.072 414.277 308.8L414.421 308.632V311.8H413.413ZM416.221 309.184C416.773 309.184 417.209 308.976 417.529 308.56C417.849 308.144 418.009 307.564 418.009 306.82C418.009 306.076 417.849 305.496 417.529 305.08C417.209 304.664 416.773 304.456 416.221 304.456C415.853 304.456 415.533 304.544 415.261 304.72C414.997 304.896 414.789 305.16 414.637 305.512C414.493 305.864 414.421 306.3 414.421 306.82C414.421 307.34 414.493 307.776 414.637 308.128C414.781 308.48 414.989 308.744 415.261 308.92C415.533 309.096 415.853 309.184 416.221 309.184ZM420.433 310V303.64H421.441V310H420.433ZM420.409 302.644V301.468H421.465V302.644H420.409ZM423.48 310V303.64H424.404L424.44 305.26L424.32 305.152C424.4 304.776 424.54 304.468 424.74 304.228C424.94 303.98 425.18 303.796 425.46 303.676C425.748 303.556 426.056 303.496 426.384 303.496C426.872 303.496 427.272 303.604 427.584 303.82C427.904 304.036 428.14 304.328 428.292 304.696C428.452 305.056 428.532 305.46 428.532 305.908V310H427.524V306.196C427.524 305.804 427.476 305.476 427.38 305.212C427.292 304.94 427.148 304.736 426.948 304.6C426.748 304.456 426.488 304.384 426.168 304.384C425.68 304.384 425.276 304.54 424.956 304.852C424.644 305.156 424.488 305.604 424.488 306.196V310H423.48ZM432.724 311.944C432.268 311.944 431.856 311.868 431.488 311.716C431.12 311.564 430.812 311.348 430.564 311.068C430.316 310.788 430.148 310.464 430.06 310.096L431.116 310.024C431.212 310.32 431.38 310.552 431.62 310.72C431.868 310.896 432.236 310.984 432.724 310.984C433.3 310.984 433.74 310.868 434.044 310.636C434.356 310.404 434.512 310.056 434.512 309.592V308.56C434.36 308.896 434.116 309.164 433.78 309.364C433.444 309.564 433.068 309.664 432.652 309.664C432.116 309.664 431.636 309.532 431.212 309.268C430.796 309.004 430.468 308.64 430.228 308.176C429.996 307.712 429.88 307.18 429.88 306.58C429.88 305.972 429.996 305.44 430.228 304.984C430.46 304.52 430.78 304.156 431.188 303.892C431.604 303.628 432.076 303.496 432.604 303.496C433.052 303.496 433.452 303.6 433.804 303.808C434.164 304.016 434.416 304.296 434.56 304.648V303.64H435.52V309.568C435.52 310.064 435.408 310.488 435.184 310.84C434.96 311.2 434.64 311.472 434.224 311.656C433.808 311.848 433.308 311.944 432.724 311.944ZM432.7 308.704C433.244 308.704 433.68 308.516 434.008 308.14C434.336 307.756 434.504 307.236 434.512 306.58C434.52 306.14 434.448 305.764 434.296 305.452C434.152 305.132 433.94 304.888 433.66 304.72C433.388 304.544 433.068 304.456 432.7 304.456C432.14 304.456 431.704 304.648 431.392 305.032C431.088 305.408 430.936 305.924 430.936 306.58C430.936 307.236 431.092 307.756 431.404 308.14C431.724 308.516 432.156 308.704 432.7 308.704Z" fill="black"/>
<path d="M462.122 177.696L505.383 202.848C507.575 204.123 510.28 204.139 512.488 202.892C514.658 201.665 516 199.365 516 196.873V86.3271C516 81.0665 513.202 76.203 508.654 73.5589L466.127 48.8338C464.238 47.7355 461.908 47.7213 460.006 48.7965L459.126 49.2939C457.194 50.3856 456 52.4325 456 54.6511V167.057C456 171.44 458.332 175.493 462.122 177.696Z" fill="white" stroke="black" stroke-width="0.923076"/>
<path d="M459.699 53.2112L503.414 78.6268C506.824 80.6099 508.923 84.2575 508.923 88.2029V200.629C508.923 202.527 506.865 203.711 505.224 202.756L461.51 177.341C458.099 175.358 456 171.71 456 167.765V55.3392C456 53.441 458.058 52.2572 459.699 53.2112Z" stroke="black" stroke-opacity="0.4" stroke-width="0.923076"/>
<path d="M507.384 82.7534L513.846 79.061" stroke="black" stroke-opacity="0.4" stroke-width="0.923076"/>
<path d="M487.612 78.476L478.028 72.9423C477.158 72.4399 476.453 72.8471 476.453 73.8517L476.453 73.8517C476.453 74.8563 477.159 76.0779 478.029 76.5803L487.613 82.114C488.483 82.6163 489.188 82.2092 489.188 81.2046C489.188 80.2 488.482 78.9783 487.612 78.476Z" fill="black" fill-opacity="0.4"/>
<path d="M477.628 134.567L382.366 189.567" stroke="black" stroke-dasharray="2 2"/>
<path d="M286 258.454V233.768C286.814 225.833 297.353 209.962 333 209.962C368.647 209.962 379.186 225.833 380 233.768V258.454C379.186 266.186 368.647 282.649 333 282.649C297.353 282.649 286.814 266.186 286 258.454Z" fill="#D865FF" stroke="black" stroke-width="1.04444"/>
<path d="M286 226.714V196.805C286.814 188.87 297.353 173 333 173C368.647 173 379.186 188.87 380 196.805V226.714C379.186 234.446 368.647 249.909 333 249.909C297.353 249.909 286.814 234.446 286 226.714Z" fill="#D865FF" stroke="black" stroke-width="1.04444"/>
<path d="M377.733 204.74C371.633 214.304 353.912 221.221 333 221.221C312.284 221.221 294.699 214.433 288.441 205.009" stroke="white" stroke-opacity="0.4" stroke-width="1.04444"/>
<path d="M155.75 265.052C160.546 262.283 166.454 262.283 171.25 265.052L205.047 284.564C209.842 287.333 212.797 292.45 212.797 297.987V337.013C212.797 342.55 209.842 347.667 205.047 350.436L171.25 369.948C166.454 372.717 160.546 372.717 155.75 369.948L121.953 350.436C117.158 347.667 114.203 342.55 114.203 337.013V297.987C114.203 292.45 117.158 287.333 121.953 284.564L155.75 265.052Z" fill="white" stroke="black"/>
<path opacity="0.4" d="M162.552 317.911L162.866 317.729M162.866 317.729L163 317.652M162.866 317.729L163 317.806M162.866 317.729L117.319 291.432M163 317.652L208.451 291.411M163 317.652V316.999M163 317.652V317.806M163.219 317.932L163 317.806M163 317.806V369.999" stroke="black"/>
<path d="M293.713 242L218.369 285.5" stroke="black" stroke-dasharray="2 2"/>
<line opacity="0.8" x1="163.5" y1="152" x2="163.5" y2="254" stroke="black"/>
<path d="M177.114 155.273V164H176.057V155.273H177.114ZM179.233 164V155.273H182.181C182.866 155.273 183.426 155.396 183.86 155.643C184.298 155.888 184.622 156.219 184.832 156.636C185.042 157.054 185.147 157.52 185.147 158.034C185.147 158.548 185.042 159.016 184.832 159.436C184.625 159.857 184.304 160.192 183.869 160.442C183.434 160.689 182.877 160.812 182.199 160.812H180.085V159.875H182.164C182.633 159.875 183.01 159.794 183.294 159.632C183.578 159.47 183.784 159.251 183.912 158.976C184.042 158.697 184.108 158.384 184.108 158.034C184.108 157.685 184.042 157.372 183.912 157.097C183.784 156.821 183.576 156.605 183.289 156.449C183.002 156.29 182.622 156.21 182.147 156.21H180.289V164H179.233ZM190.583 164H189.475L192.679 155.273H193.77L196.975 164H195.867L193.259 156.653H193.191L190.583 164ZM190.992 160.591H195.458V161.528H190.992V160.591ZM199.203 155.273V164H198.198V155.273H199.203ZM202.051 155.273V164H201.045V155.273H202.051ZM206.552 164.136C205.961 164.136 205.443 163.996 204.997 163.714C204.554 163.433 204.207 163.04 203.957 162.534C203.71 162.028 203.586 161.437 203.586 160.761C203.586 160.08 203.71 159.484 203.957 158.976C204.207 158.467 204.554 158.072 204.997 157.791C205.443 157.51 205.961 157.369 206.552 157.369C207.143 157.369 207.66 157.51 208.103 157.791C208.549 158.072 208.896 158.467 209.143 158.976C209.393 159.484 209.518 160.08 209.518 160.761C209.518 161.437 209.393 162.028 209.143 162.534C208.896 163.04 208.549 163.433 208.103 163.714C207.66 163.996 207.143 164.136 206.552 164.136ZM206.552 163.233C207.001 163.233 207.37 163.118 207.66 162.888C207.95 162.658 208.164 162.355 208.304 161.98C208.443 161.605 208.512 161.199 208.512 160.761C208.512 160.324 208.443 159.916 208.304 159.538C208.164 159.161 207.95 158.855 207.66 158.622C207.37 158.389 207.001 158.273 206.552 158.273C206.103 158.273 205.734 158.389 205.444 158.622C205.154 158.855 204.94 159.161 204.801 159.538C204.662 159.916 204.592 160.324 204.592 160.761C204.592 161.199 204.662 161.605 204.801 161.98C204.94 162.355 205.154 162.658 205.444 162.888C205.734 163.118 206.103 163.233 206.552 163.233ZM213.712 164.136C213.099 164.136 212.57 163.991 212.127 163.702C211.684 163.412 211.343 163.013 211.104 162.504C210.866 161.996 210.746 161.415 210.746 160.761C210.746 160.097 210.869 159.51 211.113 159.001C211.36 158.49 211.704 158.091 212.144 157.804C212.587 157.514 213.104 157.369 213.695 157.369C214.156 157.369 214.57 157.455 214.94 157.625C215.309 157.795 215.612 158.034 215.847 158.341C216.083 158.648 216.229 159.006 216.286 159.415H215.281C215.204 159.116 215.033 158.852 214.769 158.622C214.508 158.389 214.156 158.273 213.712 158.273C213.32 158.273 212.977 158.375 212.681 158.58C212.388 158.781 212.16 159.067 211.995 159.436C211.833 159.803 211.752 160.233 211.752 160.727C211.752 161.233 211.832 161.673 211.991 162.048C212.153 162.423 212.38 162.714 212.673 162.922C212.968 163.129 213.315 163.233 213.712 163.233C213.974 163.233 214.211 163.188 214.424 163.097C214.637 163.006 214.817 162.875 214.965 162.705C215.113 162.534 215.218 162.33 215.281 162.091H216.286C216.229 162.477 216.089 162.825 215.864 163.135C215.643 163.442 215.349 163.686 214.982 163.868C214.619 164.047 214.195 164.136 213.712 164.136ZM219.683 164.153C219.268 164.153 218.891 164.075 218.553 163.919C218.215 163.76 217.947 163.531 217.748 163.233C217.549 162.932 217.45 162.568 217.45 162.142C217.45 161.767 217.523 161.463 217.671 161.23C217.819 160.994 218.016 160.81 218.263 160.676C218.511 160.543 218.783 160.443 219.082 160.378C219.383 160.31 219.685 160.256 219.989 160.216C220.387 160.165 220.71 160.126 220.957 160.101C221.207 160.072 221.388 160.026 221.502 159.96C221.619 159.895 221.677 159.781 221.677 159.619V159.585C221.677 159.165 221.562 158.838 221.332 158.605C221.104 158.372 220.759 158.256 220.296 158.256C219.816 158.256 219.44 158.361 219.167 158.571C218.894 158.781 218.702 159.006 218.592 159.244L217.637 158.903C217.808 158.506 218.035 158.196 218.319 157.974C218.606 157.75 218.918 157.594 219.256 157.506C219.597 157.415 219.933 157.369 220.262 157.369C220.472 157.369 220.714 157.395 220.987 157.446C221.262 157.494 221.528 157.595 221.783 157.749C222.042 157.902 222.256 158.134 222.427 158.443C222.597 158.753 222.683 159.168 222.683 159.688V164H221.677V163.114H221.626C221.558 163.256 221.444 163.408 221.285 163.57C221.126 163.732 220.914 163.869 220.65 163.983C220.386 164.097 220.063 164.153 219.683 164.153ZM219.836 163.25C220.234 163.25 220.569 163.172 220.842 163.016C221.117 162.859 221.325 162.658 221.464 162.411C221.606 162.163 221.677 161.903 221.677 161.631V160.71C221.634 160.761 221.54 160.808 221.396 160.851C221.254 160.891 221.089 160.926 220.901 160.957C220.717 160.986 220.536 161.011 220.36 161.034C220.187 161.054 220.046 161.071 219.938 161.085C219.677 161.119 219.433 161.175 219.205 161.251C218.981 161.325 218.799 161.437 218.66 161.588C218.523 161.736 218.455 161.937 218.455 162.193C218.455 162.543 218.585 162.807 218.843 162.986C219.104 163.162 219.435 163.25 219.836 163.25ZM227.365 157.455V158.307H223.973V157.455H227.365ZM224.961 155.886H225.967V162.125C225.967 162.409 226.008 162.622 226.091 162.764C226.176 162.903 226.284 162.997 226.414 163.045C226.548 163.091 226.689 163.114 226.836 163.114C226.947 163.114 227.038 163.108 227.109 163.097C227.18 163.082 227.237 163.071 227.279 163.062L227.484 163.966C227.416 163.991 227.321 164.017 227.199 164.043C227.076 164.071 226.922 164.085 226.734 164.085C226.45 164.085 226.172 164.024 225.899 163.902C225.629 163.78 225.404 163.594 225.225 163.344C225.049 163.094 224.961 162.778 224.961 162.398V155.886ZM228.877 164V157.455H229.883V164H228.877ZM229.389 156.364C229.193 156.364 229.024 156.297 228.882 156.163C228.743 156.03 228.673 155.869 228.673 155.682C228.673 155.494 228.743 155.334 228.882 155.2C229.024 155.067 229.193 155 229.389 155C229.585 155 229.752 155.067 229.892 155.2C230.034 155.334 230.105 155.494 230.105 155.682C230.105 155.869 230.034 156.03 229.892 156.163C229.752 156.297 229.585 156.364 229.389 156.364ZM234.384 164.136C233.793 164.136 233.275 163.996 232.829 163.714C232.386 163.433 232.039 163.04 231.789 162.534C231.542 162.028 231.418 161.437 231.418 160.761C231.418 160.08 231.542 159.484 231.789 158.976C232.039 158.467 232.386 158.072 232.829 157.791C233.275 157.51 233.793 157.369 234.384 157.369C234.975 157.369 235.492 157.51 235.935 157.791C236.381 158.072 236.728 158.467 236.975 158.976C237.225 159.484 237.35 160.08 237.35 160.761C237.35 161.437 237.225 162.028 236.975 162.534C236.728 163.04 236.381 163.433 235.935 163.714C235.492 163.996 234.975 164.136 234.384 164.136ZM234.384 163.233C234.833 163.233 235.202 163.118 235.492 162.888C235.782 162.658 235.996 162.355 236.136 161.98C236.275 161.605 236.344 161.199 236.344 160.761C236.344 160.324 236.275 159.916 236.136 159.538C235.996 159.161 235.782 158.855 235.492 158.622C235.202 158.389 234.833 158.273 234.384 158.273C233.935 158.273 233.566 158.389 233.276 158.622C232.987 158.855 232.772 159.161 232.633 159.538C232.494 159.916 232.424 160.324 232.424 160.761C232.424 161.199 232.494 161.605 232.633 161.98C232.772 162.355 232.987 162.658 233.276 162.888C233.566 163.118 233.935 163.233 234.384 163.233ZM239.891 160.062V164H238.885V157.455H239.857V158.477H239.942C240.096 158.145 240.328 157.878 240.641 157.676C240.953 157.472 241.357 157.369 241.851 157.369C242.294 157.369 242.682 157.46 243.015 157.642C243.347 157.821 243.605 158.094 243.79 158.46C243.975 158.824 244.067 159.284 244.067 159.841V164H243.061V159.909C243.061 159.395 242.928 158.994 242.661 158.707C242.394 158.418 242.027 158.273 241.561 158.273C241.24 158.273 240.953 158.342 240.701 158.482C240.451 158.621 240.253 158.824 240.108 159.091C239.963 159.358 239.891 159.682 239.891 160.062Z" fill="#312925"/>
<line opacity="0.8" x1="485.5" y1="-2.18557e-08" x2="485.5" y2="48" stroke="black"/>
<path d="M498.057 12V3.27273H499.114V11.0625H503.17V12H498.057ZM507.33 12.1364C506.739 12.1364 506.22 11.9957 505.774 11.7145C505.331 11.4332 504.984 11.0398 504.734 10.5341C504.487 10.0284 504.364 9.4375 504.364 8.76136C504.364 8.07955 504.487 7.48437 504.734 6.97585C504.984 6.46733 505.331 6.07244 505.774 5.79119C506.22 5.50994 506.739 5.36932 507.33 5.36932C507.92 5.36932 508.438 5.50994 508.881 5.79119C509.327 6.07244 509.673 6.46733 509.92 6.97585C510.17 7.48437 510.295 8.07955 510.295 8.76136C510.295 9.4375 510.17 10.0284 509.92 10.5341C509.673 11.0398 509.327 11.4332 508.881 11.7145C508.438 11.9957 507.92 12.1364 507.33 12.1364ZM507.33 11.233C507.778 11.233 508.148 11.1179 508.438 10.8878C508.727 10.6577 508.942 10.3551 509.081 9.98011C509.22 9.60511 509.29 9.19886 509.29 8.76136C509.29 8.32386 509.22 7.91619 509.081 7.53835C508.942 7.16051 508.727 6.85511 508.438 6.62216C508.148 6.3892 507.778 6.27273 507.33 6.27273C506.881 6.27273 506.511 6.3892 506.222 6.62216C505.932 6.85511 505.717 7.16051 505.578 7.53835C505.439 7.91619 505.369 8.32386 505.369 8.76136C505.369 9.19886 505.439 9.60511 505.578 9.98011C505.717 10.3551 505.932 10.6577 506.222 10.8878C506.511 11.1179 506.881 11.233 507.33 11.233ZM514.49 12.1364C513.899 12.1364 513.38 11.9957 512.934 11.7145C512.491 11.4332 512.145 11.0398 511.895 10.5341C511.647 10.0284 511.524 9.4375 511.524 8.76136C511.524 8.07955 511.647 7.48437 511.895 6.97585C512.145 6.46733 512.491 6.07244 512.934 5.79119C513.38 5.50994 513.899 5.36932 514.49 5.36932C515.081 5.36932 515.598 5.50994 516.041 5.79119C516.487 6.07244 516.833 6.46733 517.081 6.97585C517.331 7.48437 517.456 8.07955 517.456 8.76136C517.456 9.4375 517.331 10.0284 517.081 10.5341C516.833 11.0398 516.487 11.4332 516.041 11.7145C515.598 11.9957 515.081 12.1364 514.49 12.1364ZM514.49 11.233C514.939 11.233 515.308 11.1179 515.598 10.8878C515.887 10.6577 516.102 10.3551 516.241 9.98011C516.38 9.60511 516.45 9.19886 516.45 8.76136C516.45 8.32386 516.38 7.91619 516.241 7.53835C516.102 7.16051 515.887 6.85511 515.598 6.62216C515.308 6.3892 514.939 6.27273 514.49 6.27273C514.041 6.27273 513.672 6.3892 513.382 6.62216C513.092 6.85511 512.877 7.16051 512.738 7.53835C512.599 7.91619 512.529 8.32386 512.529 8.76136C512.529 9.19886 512.599 9.60511 512.738 9.98011C512.877 10.3551 513.092 10.6577 513.382 10.8878C513.672 11.1179 514.041 11.233 514.49 11.233ZM519.928 9.61364L519.911 8.36932H520.116L522.979 5.45455H524.224L521.173 8.53977H521.087L519.928 9.61364ZM518.991 12V3.27273H519.996V12H518.991ZM523.15 12L520.593 8.76136L521.309 8.0625L524.428 12H523.15ZM529.643 9.32386V5.45455H530.649V12H529.643V10.892H529.575C529.422 11.2244 529.183 11.5071 528.859 11.7401C528.535 11.9702 528.126 12.0852 527.632 12.0852C527.223 12.0852 526.859 11.9957 526.541 11.8168C526.223 11.6349 525.973 11.3622 525.791 10.9986C525.609 10.6321 525.518 10.1705 525.518 9.61364V5.45455H526.524V9.54545C526.524 10.0227 526.657 10.4034 526.924 10.6875C527.194 10.9716 527.538 11.1136 527.956 11.1136C528.206 11.1136 528.46 11.0497 528.718 10.9219C528.98 10.794 529.199 10.598 529.375 10.3338C529.554 10.0696 529.643 9.73295 529.643 9.32386ZM532.491 14.4545V5.45455H533.462V6.49432H533.582C533.656 6.38068 533.758 6.2358 533.888 6.05966C534.022 5.88068 534.212 5.72159 534.46 5.58239C534.71 5.44034 535.048 5.36932 535.474 5.36932C536.025 5.36932 536.511 5.5071 536.931 5.78267C537.352 6.05824 537.68 6.44886 537.915 6.95455C538.151 7.46023 538.269 8.05682 538.269 8.74432C538.269 9.4375 538.151 10.0384 537.915 10.5469C537.68 11.0526 537.353 11.4446 536.935 11.723C536.518 11.9986 536.036 12.1364 535.491 12.1364C535.07 12.1364 534.734 12.0668 534.481 11.9276C534.228 11.7855 534.033 11.625 533.897 11.446C533.761 11.2642 533.656 11.1136 533.582 10.9943H533.496V14.4545H532.491ZM533.479 8.72727C533.479 9.22159 533.552 9.65767 533.697 10.0355C533.842 10.4105 534.053 10.7045 534.332 10.9176C534.61 11.1278 534.951 11.233 535.354 11.233C535.775 11.233 536.126 11.1222 536.407 10.9006C536.691 10.6761 536.904 10.375 537.046 9.99716C537.191 9.61648 537.263 9.19318 537.263 8.72727C537.263 8.26705 537.192 7.85227 537.05 7.48295C536.911 7.1108 536.7 6.81676 536.415 6.60085C536.134 6.3821 535.781 6.27273 535.354 6.27273C534.945 6.27273 534.602 6.37642 534.323 6.58381C534.045 6.78835 533.835 7.07528 533.692 7.4446C533.55 7.81108 533.479 8.23864 533.479 8.72727ZM542.837 4.21023V3.27273H549.383V4.21023H546.638V12H545.582V4.21023H542.837ZM552.587 12.1364C551.996 12.1364 551.478 11.9957 551.032 11.7145C550.589 11.4332 550.242 11.0398 549.992 10.5341C549.745 10.0284 549.621 9.4375 549.621 8.76136C549.621 8.07955 549.745 7.48437 549.992 6.97585C550.242 6.46733 550.589 6.07244 551.032 5.79119C551.478 5.50994 551.996 5.36932 552.587 5.36932C553.178 5.36932 553.695 5.50994 554.138 5.79119C554.585 6.07244 554.931 6.46733 555.178 6.97585C555.428 7.48437 555.553 8.07955 555.553 8.76136C555.553 9.4375 555.428 10.0284 555.178 10.5341C554.931 11.0398 554.585 11.4332 554.138 11.7145C553.695 11.9957 553.178 12.1364 552.587 12.1364ZM552.587 11.233C553.036 11.233 553.406 11.1179 553.695 10.8878C553.985 10.6577 554.2 10.3551 554.339 9.98011C554.478 9.60511 554.548 9.19886 554.548 8.76136C554.548 8.32386 554.478 7.91619 554.339 7.53835C554.2 7.16051 553.985 6.85511 553.695 6.62216C553.406 6.3892 553.036 6.27273 552.587 6.27273C552.138 6.27273 551.769 6.3892 551.479 6.62216C551.19 6.85511 550.975 7.16051 550.836 7.53835C550.697 7.91619 550.627 8.32386 550.627 8.76136C550.627 9.19886 550.697 9.60511 550.836 9.98011C550.975 10.3551 551.19 10.6577 551.479 10.8878C551.769 11.1179 552.138 11.233 552.587 11.233ZM559.748 12.1364C559.157 12.1364 558.638 11.9957 558.192 11.7145C557.749 11.4332 557.402 11.0398 557.152 10.5341C556.905 10.0284 556.782 9.4375 556.782 8.76136C556.782 8.07955 556.905 7.48437 557.152 6.97585C557.402 6.46733 557.749 6.07244 558.192 5.79119C558.638 5.50994 559.157 5.36932 559.748 5.36932C560.338 5.36932 560.855 5.50994 561.299 5.79119C561.745 6.07244 562.091 6.46733 562.338 6.97585C562.588 7.48437 562.713 8.07955 562.713 8.76136C562.713 9.4375 562.588 10.0284 562.338 10.5341C562.091 11.0398 561.745 11.4332 561.299 11.7145C560.855 11.9957 560.338 12.1364 559.748 12.1364ZM559.748 11.233C560.196 11.233 560.566 11.1179 560.855 10.8878C561.145 10.6577 561.36 10.3551 561.499 9.98011C561.638 9.60511 561.708 9.19886 561.708 8.76136C561.708 8.32386 561.638 7.91619 561.499 7.53835C561.36 7.16051 561.145 6.85511 560.855 6.62216C560.566 6.3892 560.196 6.27273 559.748 6.27273C559.299 6.27273 558.929 6.3892 558.64 6.62216C558.35 6.85511 558.135 7.16051 557.996 7.53835C557.857 7.91619 557.787 8.32386 557.787 8.76136C557.787 9.19886 557.857 9.60511 557.996 9.98011C558.135 10.3551 558.35 10.6577 558.64 10.8878C558.929 11.1179 559.299 11.233 559.748 11.233ZM565.254 3.27273V12H564.249V3.27273H565.254Z" fill="#312925"/>
</svg>
