<svg width="666" height="456" viewBox="0 0 666 456" fill="none" xmlns="http://www.w3.org/2000/svg">
<rect x="137" y="73" width="392" height="303" rx="17" fill="#F1F6FE"/>
<path d="M325.75 142.052C330.546 139.283 336.454 139.283 341.25 142.052L395.831 173.564C400.627 176.333 403.581 181.45 403.581 186.987V250.013C403.581 255.55 400.627 260.667 395.831 263.436L341.25 294.948C336.454 297.717 330.546 297.717 325.75 294.948L271.169 263.436C266.373 260.667 263.419 255.55 263.419 250.013V186.987C263.419 181.45 266.373 176.333 271.169 173.564L325.75 142.052Z" fill="#D865FF" stroke="black"/>
<path d="M324.797 207.144C329.747 204.285 335.847 204.285 340.797 207.144L374.593 226.656C379.544 229.514 382.593 234.796 382.593 240.512V241.537C382.593 247.253 379.544 252.535 374.593 255.394L340.797 274.906C335.847 277.764 329.747 277.764 324.797 274.906L291 255.394C286.05 252.535 283 247.253 283 241.537V240.512C283 234.796 286.05 229.514 291 226.656L324.797 207.144Z" fill="#9F00D4"/>
<path d="M381.594 240.512C381.594 235.153 378.735 230.201 374.094 227.522L340.297 208.009C335.656 205.33 329.938 205.33 325.297 208.009L291.5 227.522C286.859 230.201 284 235.153 284 240.512V241.538C284 246.896 286.859 251.848 291.5 254.528L325.297 274.041C329.938 276.72 335.656 276.72 340.297 274.041L374.094 254.528C378.735 251.848 381.594 246.896 381.594 241.538V240.512ZM382.594 241.538L382.584 242.072C382.4 247.581 379.389 252.625 374.594 255.394L340.797 274.906C335.846 277.764 329.747 277.764 324.797 274.906L291 255.394C286.204 252.625 283.193 247.581 283.01 242.072L283 241.538V240.512C283 234.796 286.05 229.514 291 226.656L324.797 207.144C329.747 204.286 335.846 204.286 340.797 207.144L374.594 226.656C379.544 229.514 382.594 234.796 382.594 240.512V241.538Z" fill="#8A10B3"/>
<path d="M324.797 188.144C329.747 185.285 335.847 185.285 340.797 188.144L374.593 207.656C379.544 210.514 382.593 215.796 382.593 221.512V222.537C382.593 228.253 379.544 233.535 374.593 236.394L340.797 255.906C335.847 258.764 329.747 258.764 324.797 255.906L291 236.394C286.05 233.535 283 228.253 283 222.537V221.512C283 215.796 286.05 210.514 291 207.656L324.797 188.144Z" fill="#9F00D4"/>
<path d="M381.594 221.512C381.594 216.153 378.735 211.201 374.094 208.522L340.297 189.009C335.656 186.33 329.938 186.33 325.297 189.009L291.5 208.522C286.859 211.201 284 216.153 284 221.512V222.538C284 227.896 286.859 232.848 291.5 235.528L325.297 255.041C329.938 257.72 335.656 257.72 340.297 255.041L374.094 235.528C378.735 232.848 381.594 227.896 381.594 222.538V221.512ZM382.594 222.538L382.584 223.072C382.4 228.581 379.389 233.625 374.594 236.394L340.797 255.906C335.846 258.764 329.747 258.764 324.797 255.906L291 236.394C286.204 233.625 283.193 228.581 283.01 223.072L283 222.538V221.512C283 215.796 286.05 210.514 291 207.656L324.797 188.144C329.747 185.286 335.846 185.286 340.797 188.144L374.594 207.656C379.544 210.514 382.594 215.796 382.594 221.512V222.538Z" fill="#8A10B3"/>
<path d="M324.5 166.619C329.45 163.761 335.55 163.761 340.5 166.619L374.297 186.131C379.247 188.989 382.297 194.271 382.297 199.987V201.012C382.297 206.729 379.247 212.011 374.297 214.869L340.5 234.381C335.55 237.239 329.45 237.239 324.5 234.381L290.704 214.869C285.753 212.011 282.704 206.729 282.704 201.012V199.987C282.704 194.271 285.753 188.989 290.704 186.131L324.5 166.619Z" fill="#9F00D4"/>
<path d="M381.297 199.987C381.297 194.629 378.438 189.677 373.797 186.997L340 167.484C335.359 164.805 329.641 164.805 325 167.484L291.203 186.997C286.562 189.677 283.703 194.629 283.703 199.987V201.013C283.703 206.372 286.562 211.323 291.203 214.003L325 233.516C329.641 236.195 335.359 236.195 340 233.516L373.797 214.003C378.438 211.323 381.297 206.372 381.297 201.013V199.987ZM382.297 201.013L382.287 201.547C382.104 207.056 379.093 212.1 374.297 214.869L340.5 234.381C335.55 237.239 329.45 237.239 324.5 234.381L290.703 214.869C285.907 212.1 282.896 207.056 282.713 201.547L282.703 201.013V199.987C282.703 194.271 285.753 188.989 290.703 186.131L324.5 166.619C329.45 163.761 335.55 163.761 340.5 166.619L374.297 186.131C379.247 188.989 382.297 194.271 382.297 199.987V201.013Z" fill="#8A10B3"/>
<path opacity="0.4" d="M333.551 218.911L400.235 180.411M334.219 218.933L267.535 180.433M333.5 218V295" stroke="white"/>
<g clip-path="url(#clip0_1492_598)">
<path d="M298.297 238.532L291.641 234.094M298.297 238.532C299.216 239.144 299.961 240.536 299.961 241.641V245.641C299.961 246.746 299.216 247.144 298.297 246.532L291.641 242.094C290.722 241.481 289.977 240.089 289.977 238.985V234.985C289.977 233.88 290.722 233.481 291.641 234.094M298.297 238.532V236.532C298.297 234.322 296.807 231.538 294.969 230.313C293.131 229.087 291.641 229.885 291.641 232.094V234.094M281.656 221.438V217.438C281.656 215.228 283.146 214.431 284.984 215.656L288.313 217.875M281.656 237.438V241.438C281.656 243.647 283.146 246.431 284.984 247.656L288.313 249.875M301.625 226.75L304.954 228.969C306.792 230.195 308.282 232.979 308.282 235.188V239.188M308.282 255.188V259.188C308.282 261.397 306.792 262.195 304.954 260.969L301.625 258.75" stroke="white" stroke-width="2" stroke-linecap="round" stroke-linejoin="round"/>
</g>
<path fill-rule="evenodd" clip-rule="evenodd" d="M237.42 326.5C237.797 326.374 238.203 326.374 238.58 326.5L242.746 327.889C243.495 328.138 244 328.839 244 329.628V332.942C244 334.767 243.211 336.114 242.094 337.173C240.996 338.215 239.56 338.999 238.237 339.712C238.089 339.792 237.911 339.792 237.763 339.712C236.44 338.999 235.004 338.215 233.906 337.173C232.789 336.114 232 334.767 232 332.942V329.628C232 328.839 232.505 328.138 233.254 327.889L237.42 326.5ZM240.187 331.687C240.382 331.492 240.382 331.175 240.187 330.98C239.992 330.785 239.675 330.785 239.48 330.98L237.333 333.126L236.52 332.313C236.325 332.118 236.008 332.118 235.813 332.313C235.618 332.509 235.618 332.825 235.813 333.02L236.98 334.187C237.074 334.281 237.201 334.333 237.333 334.333C237.466 334.333 237.593 334.281 237.687 334.187L240.187 331.687Z" fill="#D865FF"/>
<path d="M253.799 337V333.52L250.787 328.48H252.011L254.315 332.464L256.619 328.48H257.843L254.831 333.52V337H253.799ZM260.374 337.144C259.79 337.144 259.278 337.008 258.838 336.736C258.398 336.464 258.058 336.08 257.818 335.584C257.578 335.08 257.458 334.492 257.458 333.82C257.458 333.14 257.578 332.552 257.818 332.056C258.058 331.56 258.398 331.176 258.838 330.904C259.278 330.632 259.79 330.496 260.374 330.496C260.958 330.496 261.466 330.632 261.898 330.904C262.338 331.176 262.678 331.56 262.918 332.056C263.158 332.552 263.278 333.14 263.278 333.82C263.278 334.492 263.158 335.08 262.918 335.584C262.678 336.08 262.338 336.464 261.898 336.736C261.466 337.008 260.958 337.144 260.374 337.144ZM260.374 336.184C260.958 336.184 261.41 335.976 261.73 335.56C262.058 335.136 262.222 334.556 262.222 333.82C262.222 333.084 262.058 332.508 261.73 332.092C261.41 331.668 260.958 331.456 260.374 331.456C259.79 331.456 259.334 331.668 259.006 332.092C258.678 332.508 258.514 333.084 258.514 333.82C258.514 334.556 258.678 335.136 259.006 335.56C259.334 335.976 259.79 336.184 260.374 336.184ZM266.739 337.144C266.107 337.144 265.599 336.932 265.215 336.508C264.839 336.076 264.651 335.484 264.651 334.732V330.64H265.659V334.456C265.659 335.072 265.767 335.528 265.983 335.824C266.207 336.112 266.547 336.256 267.003 336.256C267.507 336.256 267.903 336.096 268.191 335.776C268.479 335.448 268.623 335 268.623 334.432V330.64H269.631V337H268.671V335.428L268.827 335.512C268.699 336.032 268.455 336.436 268.095 336.724C267.735 337.004 267.283 337.144 266.739 337.144ZM271.554 337V330.64H272.442L272.49 332.248L272.394 332.212C272.474 331.668 272.646 331.272 272.91 331.024C273.182 330.768 273.542 330.64 273.99 330.64H274.614V331.6H274.002C273.682 331.6 273.414 331.66 273.198 331.78C272.99 331.892 272.83 332.064 272.718 332.296C272.614 332.52 272.562 332.808 272.562 333.16V337H271.554ZM279.101 338.8V330.64H280.037L280.061 332.008L279.917 331.936C280.077 331.464 280.341 331.108 280.709 330.868C281.085 330.62 281.517 330.496 282.005 330.496C282.637 330.496 283.153 330.652 283.553 330.964C283.961 331.276 284.261 331.684 284.453 332.188C284.653 332.692 284.753 333.236 284.753 333.82C284.753 334.404 284.653 334.948 284.453 335.452C284.261 335.956 283.961 336.364 283.553 336.676C283.153 336.988 282.637 337.144 282.005 337.144C281.677 337.144 281.369 337.088 281.081 336.976C280.801 336.864 280.561 336.708 280.361 336.508C280.169 336.308 280.037 336.072 279.965 335.8L280.109 335.632V338.8H279.101ZM281.909 336.184C282.461 336.184 282.897 335.976 283.217 335.56C283.537 335.144 283.697 334.564 283.697 333.82C283.697 333.076 283.537 332.496 283.217 332.08C282.897 331.664 282.461 331.456 281.909 331.456C281.541 331.456 281.221 331.544 280.949 331.72C280.685 331.896 280.477 332.16 280.325 332.512C280.181 332.864 280.109 333.3 280.109 333.82C280.109 334.34 280.181 334.776 280.325 335.128C280.469 335.48 280.677 335.744 280.949 335.92C281.221 336.096 281.541 336.184 281.909 336.184ZM286.12 337V330.64H287.008L287.056 332.248L286.96 332.212C287.04 331.668 287.212 331.272 287.476 331.024C287.748 330.768 288.108 330.64 288.556 330.64H289.18V331.6H288.568C288.248 331.6 287.98 331.66 287.764 331.78C287.556 331.892 287.396 332.064 287.284 332.296C287.18 332.52 287.128 332.808 287.128 333.16V337H286.12ZM290.304 337V330.64H291.312V337H290.304ZM290.28 329.644V328.468H291.336V329.644H290.28ZM294.736 337L292.42 330.64H293.524L295.372 335.968L297.22 330.64H298.324L296.008 337H294.736ZM300.996 337.144C300.34 337.144 299.816 336.992 299.424 336.688C299.04 336.384 298.848 335.96 298.848 335.416C298.848 334.872 299.008 334.444 299.328 334.132C299.648 333.82 300.156 333.6 300.852 333.472L303.108 333.052C303.108 332.516 302.98 332.116 302.724 331.852C302.476 331.588 302.1 331.456 301.596 331.456C301.156 331.456 300.808 331.556 300.552 331.756C300.296 331.948 300.12 332.228 300.024 332.596L298.956 332.512C299.076 331.912 299.364 331.428 299.82 331.06C300.284 330.684 300.876 330.496 301.596 330.496C302.412 330.496 303.036 330.728 303.468 331.192C303.9 331.648 304.116 332.28 304.116 333.088V335.716C304.116 335.86 304.14 335.964 304.188 336.028C304.244 336.084 304.332 336.112 304.452 336.112H304.704V337C304.672 337.008 304.62 337.012 304.548 337.012C304.476 337.02 304.4 337.024 304.32 337.024C304.032 337.024 303.796 336.98 303.612 336.892C303.436 336.796 303.308 336.652 303.228 336.46C303.148 336.26 303.108 336 303.108 335.68L303.228 335.704C303.172 335.976 303.036 336.224 302.82 336.448C302.604 336.664 302.336 336.836 302.016 336.964C301.696 337.084 301.356 337.144 300.996 337.144ZM301.092 336.256C301.516 336.256 301.876 336.176 302.172 336.016C302.476 335.848 302.708 335.624 302.868 335.344C303.028 335.056 303.108 334.736 303.108 334.384V333.928L301.044 334.312C300.612 334.392 300.312 334.516 300.144 334.684C299.984 334.844 299.904 335.056 299.904 335.32C299.904 335.616 300.008 335.848 300.216 336.016C300.432 336.176 300.724 336.256 301.092 336.256ZM307.854 337C307.278 337 306.85 336.868 306.57 336.604C306.298 336.34 306.162 335.928 306.162 335.368V329.152H307.17V335.344C307.17 335.632 307.234 335.832 307.362 335.944C307.49 336.056 307.686 336.112 307.95 336.112H308.862V337H307.854ZM305.226 331.528V330.64H308.862V331.528H305.226ZM312.522 337.144C311.922 337.144 311.402 337.008 310.962 336.736C310.53 336.464 310.194 336.08 309.954 335.584C309.722 335.08 309.606 334.492 309.606 333.82C309.606 333.148 309.722 332.564 309.954 332.068C310.194 331.572 310.526 331.188 310.95 330.916C311.382 330.636 311.89 330.496 312.474 330.496C313.026 330.496 313.514 330.628 313.938 330.892C314.362 331.148 314.69 331.524 314.922 332.02C315.162 332.516 315.282 333.12 315.282 333.832V334.132H310.662C310.702 334.812 310.882 335.324 311.202 335.668C311.53 336.012 311.97 336.184 312.522 336.184C312.938 336.184 313.278 336.088 313.542 335.896C313.814 335.696 314.002 335.436 314.106 335.116L315.186 335.2C315.018 335.768 314.698 336.236 314.226 336.604C313.762 336.964 313.194 337.144 312.522 337.144ZM310.662 333.244H314.178C314.13 332.628 313.95 332.176 313.638 331.888C313.334 331.6 312.946 331.456 312.474 331.456C311.986 331.456 311.582 331.608 311.262 331.912C310.95 332.208 310.75 332.652 310.662 333.244ZM322.021 337.144C321.469 337.144 320.989 337.008 320.581 336.736C320.181 336.464 319.873 336.08 319.657 335.584C319.441 335.088 319.333 334.5 319.333 333.82C319.333 333.14 319.441 332.552 319.657 332.056C319.873 331.56 320.181 331.176 320.581 330.904C320.989 330.632 321.469 330.496 322.021 330.496C322.445 330.496 322.833 330.588 323.185 330.772C323.537 330.948 323.801 331.2 323.977 331.528V328.48H324.985V337H324.073L324.037 336.04C323.861 336.384 323.593 336.656 323.233 336.856C322.873 337.048 322.469 337.144 322.021 337.144ZM322.225 336.184C322.601 336.184 322.917 336.088 323.173 335.896C323.437 335.704 323.637 335.432 323.773 335.08C323.909 334.72 323.977 334.3 323.977 333.82C323.977 333.324 323.909 332.9 323.773 332.548C323.637 332.196 323.437 331.928 323.173 331.744C322.917 331.552 322.601 331.456 322.225 331.456C321.665 331.456 321.217 331.668 320.881 332.092C320.553 332.508 320.389 333.084 320.389 333.82C320.389 334.548 320.553 335.124 320.881 335.548C321.217 335.972 321.665 336.184 322.225 336.184ZM328.5 337.144C327.844 337.144 327.32 336.992 326.928 336.688C326.544 336.384 326.352 335.96 326.352 335.416C326.352 334.872 326.512 334.444 326.832 334.132C327.152 333.82 327.66 333.6 328.356 333.472L330.612 333.052C330.612 332.516 330.484 332.116 330.228 331.852C329.98 331.588 329.604 331.456 329.1 331.456C328.66 331.456 328.312 331.556 328.056 331.756C327.8 331.948 327.624 332.228 327.528 332.596L326.46 332.512C326.58 331.912 326.868 331.428 327.324 331.06C327.788 330.684 328.38 330.496 329.1 330.496C329.916 330.496 330.54 330.728 330.972 331.192C331.404 331.648 331.62 332.28 331.62 333.088V335.716C331.62 335.86 331.644 335.964 331.692 336.028C331.748 336.084 331.836 336.112 331.956 336.112H332.208V337C332.176 337.008 332.124 337.012 332.052 337.012C331.98 337.02 331.904 337.024 331.824 337.024C331.536 337.024 331.3 336.98 331.116 336.892C330.94 336.796 330.812 336.652 330.732 336.46C330.652 336.26 330.612 336 330.612 335.68L330.732 335.704C330.676 335.976 330.54 336.224 330.324 336.448C330.108 336.664 329.84 336.836 329.52 336.964C329.2 337.084 328.86 337.144 328.5 337.144ZM328.596 336.256C329.02 336.256 329.38 336.176 329.676 336.016C329.98 335.848 330.212 335.624 330.372 335.344C330.532 335.056 330.612 334.736 330.612 334.384V333.928L328.548 334.312C328.116 334.392 327.816 334.516 327.648 334.684C327.488 334.844 327.408 335.056 327.408 335.32C327.408 335.616 327.512 335.848 327.72 336.016C327.936 336.176 328.228 336.256 328.596 336.256ZM335.358 337C334.782 337 334.354 336.868 334.074 336.604C333.802 336.34 333.666 335.928 333.666 335.368V329.152H334.674V335.344C334.674 335.632 334.738 335.832 334.866 335.944C334.994 336.056 335.19 336.112 335.454 336.112H336.366V337H335.358ZM332.73 331.528V330.64H336.366V331.528H332.73ZM339.328 337.144C338.672 337.144 338.148 336.992 337.756 336.688C337.372 336.384 337.18 335.96 337.18 335.416C337.18 334.872 337.34 334.444 337.66 334.132C337.98 333.82 338.488 333.6 339.184 333.472L341.44 333.052C341.44 332.516 341.312 332.116 341.056 331.852C340.808 331.588 340.432 331.456 339.928 331.456C339.488 331.456 339.14 331.556 338.884 331.756C338.628 331.948 338.452 332.228 338.356 332.596L337.288 332.512C337.408 331.912 337.696 331.428 338.152 331.06C338.616 330.684 339.208 330.496 339.928 330.496C340.744 330.496 341.368 330.728 341.8 331.192C342.232 331.648 342.448 332.28 342.448 333.088V335.716C342.448 335.86 342.472 335.964 342.52 336.028C342.576 336.084 342.664 336.112 342.784 336.112H343.036V337C343.004 337.008 342.952 337.012 342.88 337.012C342.808 337.02 342.732 337.024 342.652 337.024C342.364 337.024 342.128 336.98 341.944 336.892C341.768 336.796 341.64 336.652 341.56 336.46C341.48 336.26 341.44 336 341.44 335.68L341.56 335.704C341.504 335.976 341.368 336.224 341.152 336.448C340.936 336.664 340.668 336.836 340.348 336.964C340.028 337.084 339.688 337.144 339.328 337.144ZM339.424 336.256C339.848 336.256 340.208 336.176 340.504 336.016C340.808 335.848 341.04 335.624 341.2 335.344C341.36 335.056 341.44 334.736 341.44 334.384V333.928L339.376 334.312C338.944 334.392 338.644 334.516 338.476 334.684C338.316 334.844 338.236 335.056 338.236 335.32C338.236 335.616 338.34 335.848 338.548 336.016C338.764 336.176 339.056 336.256 339.424 336.256ZM347.222 337V330.64H348.23V337H347.222ZM347.198 329.644V328.468H348.254V329.644H347.198ZM352.35 337.144C351.782 337.144 351.298 337.052 350.898 336.868C350.506 336.684 350.198 336.432 349.974 336.112C349.758 335.784 349.634 335.412 349.602 334.996L350.658 334.924C350.722 335.308 350.886 335.616 351.15 335.848C351.414 336.072 351.814 336.184 352.35 336.184C352.782 336.184 353.126 336.116 353.382 335.98C353.646 335.836 353.778 335.608 353.778 335.296C353.778 335.128 353.738 334.988 353.658 334.876C353.578 334.764 353.422 334.668 353.19 334.588C352.958 334.5 352.614 334.416 352.158 334.336C351.55 334.224 351.07 334.088 350.718 333.928C350.374 333.76 350.126 333.556 349.974 333.316C349.83 333.068 349.758 332.776 349.758 332.44C349.758 331.872 349.966 331.408 350.382 331.048C350.798 330.68 351.39 330.496 352.158 330.496C352.678 330.496 353.114 330.592 353.466 330.784C353.826 330.968 354.106 331.216 354.306 331.528C354.514 331.832 354.65 332.168 354.714 332.536L353.658 332.608C353.61 332.384 353.522 332.188 353.394 332.02C353.266 331.844 353.098 331.708 352.89 331.612C352.682 331.508 352.434 331.456 352.146 331.456C351.69 331.456 351.354 331.544 351.138 331.72C350.922 331.896 350.814 332.12 350.814 332.392C350.814 332.6 350.862 332.772 350.958 332.908C351.062 333.036 351.226 333.144 351.45 333.232C351.674 333.312 351.974 333.384 352.35 333.448C352.998 333.56 353.502 333.696 353.862 333.856C354.222 334.016 354.474 334.212 354.618 334.444C354.762 334.676 354.834 334.96 354.834 335.296C354.834 335.688 354.722 336.024 354.498 336.304C354.282 336.576 353.986 336.784 353.61 336.928C353.242 337.072 352.822 337.144 352.35 337.144ZM360.599 337L358.631 330.64H359.735L361.223 335.944L362.735 330.64H363.815L365.327 335.944L366.827 330.64H367.931L365.963 337H364.691L363.275 332.164L361.859 337H360.599ZM371.327 337.144C370.727 337.144 370.207 337.008 369.767 336.736C369.335 336.464 368.999 336.08 368.759 335.584C368.527 335.08 368.411 334.492 368.411 333.82C368.411 333.148 368.527 332.564 368.759 332.068C368.999 331.572 369.331 331.188 369.755 330.916C370.187 330.636 370.695 330.496 371.279 330.496C371.831 330.496 372.319 330.628 372.743 330.892C373.167 331.148 373.495 331.524 373.727 332.02C373.967 332.516 374.087 333.12 374.087 333.832V334.132H369.467C369.507 334.812 369.687 335.324 370.007 335.668C370.335 336.012 370.775 336.184 371.327 336.184C371.743 336.184 372.083 336.088 372.347 335.896C372.619 335.696 372.807 335.436 372.911 335.116L373.991 335.2C373.823 335.768 373.503 336.236 373.031 336.604C372.567 336.964 371.999 337.144 371.327 337.144ZM369.467 333.244H372.983C372.935 332.628 372.755 332.176 372.443 331.888C372.139 331.6 371.751 331.456 371.279 331.456C370.791 331.456 370.387 331.608 370.067 331.912C369.755 332.208 369.555 332.652 369.467 333.244ZM376.759 337C376.391 337 376.091 336.904 375.859 336.712C375.627 336.52 375.511 336.216 375.511 335.8V328.48H376.519V335.716C376.519 335.844 376.551 335.944 376.615 336.016C376.687 336.08 376.787 336.112 376.915 336.112H377.467V337H376.759ZM379.841 337C379.473 337 379.173 336.904 378.941 336.712C378.709 336.52 378.593 336.216 378.593 335.8V328.48H379.601V335.716C379.601 335.844 379.633 335.944 379.697 336.016C379.769 336.08 379.869 336.112 379.997 336.112H380.549V337H379.841ZM384.792 338.8V330.64H385.728L385.752 332.008L385.608 331.936C385.768 331.464 386.032 331.108 386.4 330.868C386.776 330.62 387.208 330.496 387.696 330.496C388.328 330.496 388.844 330.652 389.244 330.964C389.652 331.276 389.952 331.684 390.144 332.188C390.344 332.692 390.444 333.236 390.444 333.82C390.444 334.404 390.344 334.948 390.144 335.452C389.952 335.956 389.652 336.364 389.244 336.676C388.844 336.988 388.328 337.144 387.696 337.144C387.368 337.144 387.06 337.088 386.772 336.976C386.492 336.864 386.252 336.708 386.052 336.508C385.86 336.308 385.728 336.072 385.656 335.8L385.8 335.632V338.8H384.792ZM387.6 336.184C388.152 336.184 388.588 335.976 388.908 335.56C389.228 335.144 389.388 334.564 389.388 333.82C389.388 333.076 389.228 332.496 388.908 332.08C388.588 331.664 388.152 331.456 387.6 331.456C387.232 331.456 386.912 331.544 386.64 331.72C386.376 331.896 386.168 332.16 386.016 332.512C385.872 332.864 385.8 333.3 385.8 333.82C385.8 334.34 385.872 334.776 386.016 335.128C386.16 335.48 386.368 335.744 386.64 335.92C386.912 336.096 387.232 336.184 387.6 336.184ZM391.812 337V330.64H392.7L392.748 332.248L392.652 332.212C392.732 331.668 392.904 331.272 393.168 331.024C393.44 330.768 393.8 330.64 394.248 330.64H394.872V331.6H394.26C393.94 331.6 393.672 331.66 393.456 331.78C393.248 331.892 393.088 332.064 392.976 332.296C392.872 332.52 392.82 332.808 392.82 333.16V337H391.812ZM398.362 337.144C397.778 337.144 397.266 337.008 396.826 336.736C396.386 336.464 396.046 336.08 395.806 335.584C395.566 335.08 395.446 334.492 395.446 333.82C395.446 333.14 395.566 332.552 395.806 332.056C396.046 331.56 396.386 331.176 396.826 330.904C397.266 330.632 397.778 330.496 398.362 330.496C398.946 330.496 399.454 330.632 399.886 330.904C400.326 331.176 400.666 331.56 400.906 332.056C401.146 332.552 401.266 333.14 401.266 333.82C401.266 334.492 401.146 335.08 400.906 335.584C400.666 336.08 400.326 336.464 399.886 336.736C399.454 337.008 398.946 337.144 398.362 337.144ZM398.362 336.184C398.946 336.184 399.398 335.976 399.718 335.56C400.046 335.136 400.21 334.556 400.21 333.82C400.21 333.084 400.046 332.508 399.718 332.092C399.398 331.668 398.946 331.456 398.362 331.456C397.778 331.456 397.322 331.668 396.994 332.092C396.666 332.508 396.502 333.084 396.502 333.82C396.502 334.556 396.666 335.136 396.994 335.56C397.322 335.976 397.778 336.184 398.362 336.184ZM404.722 337C404.146 337 403.718 336.868 403.438 336.604C403.166 336.34 403.03 335.928 403.03 335.368V329.152H404.038V335.344C404.038 335.632 404.102 335.832 404.23 335.944C404.358 336.056 404.554 336.112 404.818 336.112H405.73V337H404.722ZM402.094 331.528V330.64H405.73V331.528H402.094ZM409.389 337.144C408.789 337.144 408.269 337.008 407.829 336.736C407.397 336.464 407.061 336.08 406.821 335.584C406.589 335.08 406.473 334.492 406.473 333.82C406.473 333.148 406.589 332.564 406.821 332.068C407.061 331.572 407.393 331.188 407.817 330.916C408.249 330.636 408.757 330.496 409.341 330.496C409.893 330.496 410.381 330.628 410.805 330.892C411.229 331.148 411.557 331.524 411.789 332.02C412.029 332.516 412.149 333.12 412.149 333.832V334.132H407.529C407.569 334.812 407.749 335.324 408.069 335.668C408.397 336.012 408.837 336.184 409.389 336.184C409.805 336.184 410.145 336.088 410.409 335.896C410.681 335.696 410.869 335.436 410.973 335.116L412.053 335.2C411.885 335.768 411.565 336.236 411.093 336.604C410.629 336.964 410.061 337.144 409.389 337.144ZM407.529 333.244H411.045C410.997 332.628 410.817 332.176 410.505 331.888C410.201 331.6 409.813 331.456 409.341 331.456C408.853 331.456 408.449 331.608 408.129 331.912C407.817 332.208 407.617 332.652 407.529 333.244ZM415.999 337.144C415.407 337.144 414.891 337.008 414.451 336.736C414.019 336.464 413.683 336.08 413.443 335.584C413.203 335.08 413.083 334.492 413.083 333.82C413.083 333.148 413.203 332.564 413.443 332.068C413.683 331.572 414.019 331.188 414.451 330.916C414.891 330.636 415.407 330.496 415.999 330.496C416.487 330.496 416.919 330.584 417.295 330.76C417.679 330.928 417.991 331.176 418.231 331.504C418.471 331.832 418.627 332.232 418.699 332.704L417.643 332.776C417.571 332.352 417.387 332.028 417.091 331.804C416.795 331.572 416.431 331.456 415.999 331.456C415.415 331.456 414.959 331.668 414.631 332.092C414.303 332.508 414.139 333.084 414.139 333.82C414.139 334.556 414.303 335.136 414.631 335.56C414.959 335.976 415.415 336.184 415.999 336.184C416.431 336.184 416.795 336.064 417.091 335.824C417.387 335.584 417.571 335.224 417.643 334.744L418.699 334.816C418.627 335.288 418.471 335.7 418.231 336.052C417.991 336.396 417.679 336.664 417.295 336.856C416.919 337.048 416.487 337.144 415.999 337.144ZM422.03 337C421.454 337 421.026 336.868 420.746 336.604C420.474 336.34 420.338 335.928 420.338 335.368V329.152H421.346V335.344C421.346 335.632 421.41 335.832 421.538 335.944C421.666 336.056 421.862 336.112 422.126 336.112H423.038V337H422.03ZM419.402 331.528V330.64H423.038V331.528H419.402ZM426.698 337.144C426.098 337.144 425.578 337.008 425.138 336.736C424.706 336.464 424.37 336.08 424.13 335.584C423.898 335.08 423.782 334.492 423.782 333.82C423.782 333.148 423.898 332.564 424.13 332.068C424.37 331.572 424.702 331.188 425.126 330.916C425.558 330.636 426.066 330.496 426.65 330.496C427.202 330.496 427.69 330.628 428.114 330.892C428.538 331.148 428.866 331.524 429.098 332.02C429.338 332.516 429.458 333.12 429.458 333.832V334.132H424.838C424.878 334.812 425.058 335.324 425.378 335.668C425.706 336.012 426.146 336.184 426.698 336.184C427.114 336.184 427.454 336.088 427.718 335.896C427.99 335.696 428.178 335.436 428.282 335.116L429.362 335.2C429.194 335.768 428.874 336.236 428.402 336.604C427.938 336.964 427.37 337.144 426.698 337.144ZM424.838 333.244H428.354C428.306 332.628 428.126 332.176 427.814 331.888C427.51 331.6 427.122 331.456 426.65 331.456C426.162 331.456 425.758 331.608 425.438 331.912C425.126 332.208 424.926 332.652 424.838 333.244ZM433.079 337.144C432.527 337.144 432.047 337.008 431.639 336.736C431.239 336.464 430.931 336.08 430.715 335.584C430.499 335.088 430.391 334.5 430.391 333.82C430.391 333.14 430.499 332.552 430.715 332.056C430.931 331.56 431.239 331.176 431.639 330.904C432.047 330.632 432.527 330.496 433.079 330.496C433.503 330.496 433.891 330.588 434.243 330.772C434.595 330.948 434.859 331.2 435.035 331.528V328.48H436.043V337H435.131L435.095 336.04C434.919 336.384 434.651 336.656 434.291 336.856C433.931 337.048 433.527 337.144 433.079 337.144ZM433.283 336.184C433.659 336.184 433.975 336.088 434.231 335.896C434.495 335.704 434.695 335.432 434.831 335.08C434.967 334.72 435.035 334.3 435.035 333.82C435.035 333.324 434.967 332.9 434.831 332.548C434.695 332.196 434.495 331.928 434.231 331.744C433.975 331.552 433.659 331.456 433.283 331.456C432.723 331.456 432.275 331.668 431.939 332.092C431.611 332.508 431.447 333.084 431.447 333.82C431.447 334.548 431.611 335.124 431.939 335.548C432.275 335.972 432.723 336.184 433.283 336.184Z" fill="#312925"/>
<defs>
<clipPath id="clip0_1492_598">
<rect width="48" height="48" fill="white" transform="matrix(0.83205 0.5547 0 1 275 201)"/>
</clipPath>
</defs>
</svg>
