<svg width="231" height="36" viewBox="0 0 231 36" fill="none" xmlns="http://www.w3.org/2000/svg">
<rect x="3.79688" y="3.79688" width="28.4062" height="28.4062" rx="6.1875" fill="white" stroke="#D4DADD" stroke-width="0.5625"/>
<path d="M11.9318 18.2845C16.3182 9.93523 20.9813 3.93505 24.3523 0.632647C24.9585 0.0387521 25.8848 0.710767 25.6358 1.52207C23.7524 7.65843 22.4521 17.3714 21.8708 22.0378C21.8087 22.5368 21.3203 22.8636 20.8348 22.7329L12.9617 20.6132C11.9521 20.3414 11.4455 19.2101 11.9318 18.2845Z" fill="#7EC9FF"/>
<path d="M19.0728 22.4181C18.9856 16.7256 19.5473 12.0865 20.1496 8.96214C20.4047 7.63886 22.0255 7.32992 22.7627 8.45808C25.081 12.0062 26.6349 15.5771 27.4292 18.8544C27.5912 19.5231 27.2848 20.2097 26.6989 20.5703L21.5407 23.7447C20.4712 24.4029 19.0921 23.6737 19.0728 22.4181Z" fill="#1A93EB"/>
<path d="M6.86609 22.1905C6.24836 21.6351 6.79937 20.6254 7.6007 20.8444L27.6355 26.3194C28.4608 26.545 28.6599 27.6244 27.9693 28.1295C27.0041 28.8355 25.8355 29.2083 24.6398 29.1916L15.6248 29.0656C14.8962 29.0554 14.1961 28.7813 13.6542 28.2941L6.86609 22.1905Z" fill="#1B5BBC"/>
<path d="M43.8602 24V11.652H50.6282C51.5402 11.652 52.2962 11.814 52.8962 12.138C53.5082 12.462 53.9642 12.918 54.2642 13.506C54.5642 14.082 54.7142 14.748 54.7142 15.504C54.7142 16.308 54.5342 17.022 54.1742 17.646C53.8142 18.258 53.2922 18.726 52.6082 19.05L55.1282 24H52.1582L49.9802 19.5H46.5422V24H43.8602ZM46.5422 17.376H50.2682C50.8082 17.376 51.2282 17.214 51.5282 16.89C51.8282 16.554 51.9782 16.104 51.9782 15.54C51.9782 15.18 51.9122 14.874 51.7802 14.622C51.6482 14.358 51.4562 14.16 51.2042 14.028C50.9522 13.896 50.6402 13.83 50.2682 13.83H46.5422V17.376ZM60.9377 24.216C59.9057 24.216 59.0297 24.042 58.3097 23.694C57.5897 23.334 57.0437 22.788 56.6717 22.056C56.2997 21.312 56.1137 20.382 56.1137 19.266C56.1137 18.126 56.2997 17.196 56.6717 16.476C57.0437 15.744 57.5897 15.204 58.3097 14.856C59.0297 14.496 59.9057 14.316 60.9377 14.316C61.9937 14.316 62.8757 14.496 63.5837 14.856C64.3037 15.204 64.8497 15.744 65.2217 16.476C65.5937 17.196 65.7797 18.126 65.7797 19.266C65.7797 20.382 65.5937 21.312 65.2217 22.056C64.8497 22.788 64.3037 23.334 63.5837 23.694C62.8757 24.042 61.9937 24.216 60.9377 24.216ZM60.9377 22.272C61.4897 22.272 61.9277 22.17 62.2517 21.966C62.5877 21.762 62.8337 21.45 62.9897 21.03C63.1457 20.61 63.2237 20.094 63.2237 19.482V19.05C63.2237 18.438 63.1457 17.922 62.9897 17.502C62.8337 17.082 62.5877 16.77 62.2517 16.566C61.9277 16.35 61.4897 16.242 60.9377 16.242C60.3977 16.242 59.9597 16.35 59.6237 16.566C59.2997 16.77 59.0597 17.082 58.9037 17.502C58.7477 17.922 58.6697 18.438 58.6697 19.05V19.482C58.6697 20.094 58.7477 20.61 58.9037 21.03C59.0597 21.45 59.2997 21.762 59.6237 21.966C59.9597 22.17 60.3977 22.272 60.9377 22.272ZM66.121 24L69.559 19.086L66.373 14.532H69.379L71.179 17.376H71.269L73.087 14.532H75.913L72.709 19.068L76.093 24H73.141L71.089 20.778H70.999L68.947 24H66.121ZM78.7798 27.384C78.3358 27.384 77.9638 27.348 77.6638 27.276C77.3758 27.216 77.1898 27.174 77.1058 27.15V25.458H78.2038C78.5038 25.458 78.7738 25.386 79.0138 25.242C79.2538 25.11 79.4638 24.93 79.6438 24.702C79.8238 24.486 79.9558 24.252 80.0398 24L76.3318 14.532H78.9778L80.5978 18.906C80.6698 19.11 80.7478 19.368 80.8318 19.68C80.9278 19.98 81.0238 20.298 81.1198 20.634C81.2158 20.958 81.2938 21.246 81.3538 21.498H81.4438C81.4918 21.33 81.5458 21.132 81.6058 20.904C81.6658 20.676 81.7258 20.442 81.7858 20.202C81.8578 19.962 81.9238 19.734 81.9838 19.518C82.0558 19.29 82.1158 19.092 82.1638 18.924L83.5138 14.532H86.0338L82.8118 23.55C82.6318 24.078 82.4218 24.57 82.1818 25.026C81.9538 25.494 81.6838 25.902 81.3718 26.25C81.0598 26.61 80.6878 26.886 80.2558 27.078C79.8358 27.282 79.3438 27.384 78.7798 27.384ZM87.4715 24V11.652H94.5275C95.1755 11.652 95.7575 11.778 96.2735 12.03C96.8015 12.282 97.2155 12.636 97.5155 13.092C97.8155 13.548 97.9655 14.082 97.9655 14.694C97.9655 15.186 97.8755 15.624 97.6955 16.008C97.5155 16.392 97.2695 16.71 96.9575 16.962C96.6575 17.214 96.3155 17.4 95.9315 17.52V17.592C96.3875 17.688 96.7895 17.868 97.1375 18.132C97.4975 18.396 97.7795 18.738 97.9835 19.158C98.1995 19.566 98.3075 20.052 98.3075 20.616C98.3075 21.36 98.1335 21.984 97.7855 22.488C97.4495 22.992 96.9995 23.37 96.4355 23.622C95.8715 23.874 95.2415 24 94.5455 24H87.4715ZM90.1535 21.804H94.0235C94.4675 21.804 94.8275 21.678 95.1035 21.426C95.3915 21.174 95.5355 20.784 95.5355 20.256C95.5355 19.944 95.4755 19.674 95.3555 19.446C95.2355 19.218 95.0555 19.044 94.8155 18.924C94.5755 18.792 94.2695 18.726 93.8975 18.726H90.1535V21.804ZM90.1535 16.638H93.7175C94.0415 16.638 94.3115 16.578 94.5275 16.458C94.7555 16.326 94.9235 16.158 95.0315 15.954C95.1515 15.738 95.2115 15.492 95.2115 15.216C95.2115 14.748 95.0795 14.394 94.8155 14.154C94.5635 13.914 94.2275 13.794 93.8075 13.794H90.1535V16.638ZM100.246 24V14.532H102.316L102.514 16.008H102.64C102.76 15.696 102.916 15.414 103.108 15.162C103.3 14.898 103.54 14.688 103.828 14.532C104.116 14.376 104.452 14.298 104.836 14.298C105.04 14.298 105.226 14.322 105.394 14.37C105.562 14.406 105.688 14.442 105.772 14.478V16.746H104.998C104.626 16.746 104.296 16.8 104.008 16.908C103.732 17.004 103.498 17.16 103.306 17.376C103.114 17.592 102.97 17.856 102.874 18.168C102.79 18.48 102.748 18.846 102.748 19.266V24H100.246ZM111.264 24.216C110.232 24.216 109.356 24.042 108.636 23.694C107.916 23.334 107.37 22.788 106.998 22.056C106.626 21.312 106.44 20.382 106.44 19.266C106.44 18.126 106.626 17.196 106.998 16.476C107.37 15.744 107.916 15.204 108.636 14.856C109.356 14.496 110.232 14.316 111.264 14.316C112.32 14.316 113.202 14.496 113.91 14.856C114.63 15.204 115.176 15.744 115.548 16.476C115.92 17.196 116.106 18.126 116.106 19.266C116.106 20.382 115.92 21.312 115.548 22.056C115.176 22.788 114.63 23.334 113.91 23.694C113.202 24.042 112.32 24.216 111.264 24.216ZM111.264 22.272C111.816 22.272 112.254 22.17 112.578 21.966C112.914 21.762 113.16 21.45 113.316 21.03C113.472 20.61 113.55 20.094 113.55 19.482V19.05C113.55 18.438 113.472 17.922 113.316 17.502C113.16 17.082 112.914 16.77 112.578 16.566C112.254 16.35 111.816 16.242 111.264 16.242C110.724 16.242 110.286 16.35 109.95 16.566C109.626 16.77 109.386 17.082 109.23 17.502C109.074 17.922 108.996 18.438 108.996 19.05V19.482C108.996 20.094 109.074 20.61 109.23 21.03C109.386 21.45 109.626 21.762 109.95 21.966C110.286 22.17 110.724 22.272 111.264 22.272ZM119.801 24L116.831 14.532H119.459L120.647 19.176C120.707 19.416 120.761 19.674 120.809 19.95C120.869 20.226 120.923 20.472 120.971 20.688C121.019 20.904 121.055 21.06 121.079 21.156H121.205C121.253 20.916 121.301 20.67 121.349 20.418C121.409 20.154 121.463 19.908 121.511 19.68C121.571 19.44 121.613 19.26 121.637 19.14L122.771 14.532H125.381L126.551 19.158C126.599 19.326 126.647 19.536 126.695 19.788C126.743 20.028 126.797 20.274 126.857 20.526C126.917 20.766 126.965 20.976 127.001 21.156H127.109C127.133 20.988 127.169 20.79 127.217 20.562C127.277 20.334 127.331 20.1 127.379 19.86C127.439 19.62 127.493 19.404 127.541 19.212L128.711 14.532H131.123L128.171 24H125.597L124.553 19.77C124.505 19.542 124.445 19.29 124.373 19.014C124.301 18.726 124.235 18.444 124.175 18.168C124.127 17.892 124.085 17.652 124.049 17.448H123.941C123.941 17.556 123.917 17.724 123.869 17.952C123.821 18.168 123.761 18.432 123.689 18.744C123.629 19.044 123.551 19.386 123.455 19.77L122.375 24H119.801ZM136.142 24.216C135.482 24.216 134.888 24.144 134.36 24C133.832 23.856 133.382 23.658 133.01 23.406C132.638 23.142 132.35 22.83 132.146 22.47C131.954 22.11 131.858 21.702 131.858 21.246C131.858 21.198 131.858 21.15 131.858 21.102C131.858 21.054 131.864 21.018 131.876 20.994H134.288C134.288 21.018 134.288 21.042 134.288 21.066C134.288 21.09 134.288 21.114 134.288 21.138C134.3 21.438 134.396 21.684 134.576 21.876C134.756 22.056 134.99 22.188 135.278 22.272C135.578 22.356 135.89 22.398 136.214 22.398C136.502 22.398 136.778 22.374 137.042 22.326C137.318 22.266 137.546 22.164 137.726 22.02C137.918 21.876 138.014 21.69 138.014 21.462C138.014 21.174 137.894 20.952 137.654 20.796C137.426 20.64 137.12 20.514 136.736 20.418C136.364 20.322 135.956 20.214 135.512 20.094C135.104 19.998 134.696 19.89 134.288 19.77C133.88 19.638 133.508 19.47 133.172 19.266C132.848 19.062 132.584 18.798 132.38 18.474C132.176 18.138 132.074 17.718 132.074 17.214C132.074 16.722 132.182 16.296 132.398 15.936C132.614 15.564 132.908 15.258 133.28 15.018C133.664 14.778 134.108 14.604 134.612 14.496C135.128 14.376 135.68 14.316 136.268 14.316C136.82 14.316 137.336 14.376 137.816 14.496C138.296 14.604 138.716 14.772 139.076 15C139.436 15.216 139.718 15.492 139.922 15.828C140.126 16.152 140.228 16.518 140.228 16.926C140.228 17.01 140.228 17.088 140.228 17.16C140.228 17.232 140.222 17.28 140.21 17.304H137.816V17.16C137.816 16.944 137.75 16.764 137.618 16.62C137.486 16.464 137.294 16.344 137.042 16.26C136.802 16.176 136.508 16.134 136.16 16.134C135.92 16.134 135.698 16.152 135.494 16.188C135.302 16.224 135.134 16.278 134.99 16.35C134.846 16.422 134.732 16.512 134.648 16.62C134.576 16.716 134.54 16.836 134.54 16.98C134.54 17.184 134.624 17.352 134.792 17.484C134.972 17.604 135.206 17.706 135.494 17.79C135.782 17.874 136.1 17.964 136.448 18.06C136.88 18.18 137.33 18.3 137.798 18.42C138.278 18.528 138.722 18.678 139.13 18.87C139.538 19.062 139.868 19.338 140.12 19.698C140.372 20.046 140.498 20.52 140.498 21.12C140.498 21.696 140.384 22.182 140.156 22.578C139.94 22.974 139.634 23.292 139.238 23.532C138.842 23.772 138.38 23.946 137.852 24.054C137.324 24.162 136.754 24.216 136.142 24.216ZM146.612 24.216C145.568 24.216 144.692 24.042 143.984 23.694C143.276 23.334 142.742 22.788 142.382 22.056C142.022 21.324 141.842 20.394 141.842 19.266C141.842 18.126 142.022 17.196 142.382 16.476C142.742 15.744 143.27 15.204 143.966 14.856C144.674 14.496 145.538 14.316 146.558 14.316C147.518 14.316 148.328 14.49 148.988 14.838C149.648 15.174 150.146 15.702 150.482 16.422C150.818 17.13 150.986 18.048 150.986 19.176V19.824H144.38C144.404 20.376 144.488 20.844 144.632 21.228C144.788 21.612 145.022 21.9 145.334 22.092C145.658 22.272 146.084 22.362 146.612 22.362C146.9 22.362 147.158 22.326 147.386 22.254C147.626 22.182 147.83 22.074 147.998 21.93C148.166 21.786 148.298 21.606 148.394 21.39C148.49 21.174 148.538 20.928 148.538 20.652H150.986C150.986 21.252 150.878 21.774 150.662 22.218C150.446 22.662 150.146 23.034 149.762 23.334C149.378 23.622 148.916 23.844 148.376 24C147.848 24.144 147.26 24.216 146.612 24.216ZM144.416 18.24H148.412C148.412 17.88 148.364 17.568 148.268 17.304C148.184 17.04 148.064 16.824 147.908 16.656C147.752 16.488 147.56 16.368 147.332 16.296C147.116 16.212 146.87 16.17 146.594 16.17C146.138 16.17 145.754 16.248 145.442 16.404C145.142 16.548 144.908 16.776 144.74 17.088C144.584 17.388 144.476 17.772 144.416 18.24ZM152.822 24V14.532H154.892L155.09 16.008H155.216C155.336 15.696 155.492 15.414 155.684 15.162C155.876 14.898 156.116 14.688 156.404 14.532C156.692 14.376 157.028 14.298 157.412 14.298C157.616 14.298 157.802 14.322 157.97 14.37C158.138 14.406 158.264 14.442 158.348 14.478V16.746H157.574C157.202 16.746 156.872 16.8 156.584 16.908C156.308 17.004 156.074 17.16 155.882 17.376C155.69 17.592 155.546 17.856 155.45 18.168C155.366 18.48 155.324 18.846 155.324 19.266V24H152.822Z" fill="#312925"/>
<rect x="163" width="68" height="17" rx="4" fill="#FAE0FF"/>
<path d="M167.191 13V4.768H168.979V13H167.191ZM170.801 13V4.768H175.085C175.677 4.768 176.169 4.88 176.561 5.104C176.961 5.32 177.261 5.628 177.461 6.028C177.669 6.42 177.773 6.888 177.773 7.432C177.773 7.976 177.665 8.452 177.449 8.86C177.241 9.26 176.933 9.572 176.525 9.796C176.117 10.02 175.617 10.132 175.025 10.132H172.589V13H170.801ZM172.589 8.668H174.785C175.161 8.668 175.449 8.56 175.649 8.344C175.857 8.128 175.961 7.828 175.961 7.444C175.961 7.18 175.917 6.96 175.829 6.784C175.741 6.608 175.609 6.472 175.433 6.376C175.265 6.28 175.049 6.232 174.785 6.232H172.589V8.668ZM184.41 13.144C183.554 13.144 182.822 12.996 182.214 12.7C181.606 12.396 181.142 11.928 180.822 11.296C180.51 10.664 180.354 9.86 180.354 8.884C180.354 7.444 180.706 6.376 181.41 5.68C182.122 4.976 183.122 4.624 184.41 4.624C185.114 4.624 185.746 4.744 186.306 4.984C186.866 5.224 187.306 5.584 187.626 6.064C187.954 6.544 188.118 7.148 188.118 7.876H186.318C186.318 7.492 186.238 7.168 186.078 6.904C185.926 6.64 185.706 6.44 185.418 6.304C185.138 6.16 184.81 6.088 184.434 6.088C183.922 6.088 183.498 6.188 183.162 6.388C182.834 6.588 182.59 6.884 182.43 7.276C182.278 7.66 182.202 8.132 182.202 8.692V9.064C182.202 9.64 182.282 10.124 182.442 10.516C182.602 10.9 182.842 11.192 183.162 11.392C183.49 11.584 183.91 11.68 184.422 11.68C184.822 11.68 185.17 11.612 185.466 11.476C185.762 11.34 185.99 11.14 186.15 10.876C186.31 10.612 186.39 10.288 186.39 9.904H188.118C188.118 10.632 187.958 11.236 187.638 11.716C187.326 12.196 186.89 12.556 186.33 12.796C185.77 13.028 185.13 13.144 184.41 13.144ZM189.383 13V4.324H191.051V7.384H191.135C191.271 7.216 191.431 7.072 191.615 6.952C191.807 6.824 192.019 6.724 192.251 6.652C192.491 6.58 192.751 6.544 193.031 6.544C193.447 6.544 193.811 6.62 194.123 6.772C194.435 6.924 194.675 7.164 194.843 7.492C195.019 7.82 195.107 8.248 195.107 8.776V13H193.439V9.04C193.439 8.84 193.415 8.672 193.367 8.536C193.319 8.392 193.247 8.276 193.151 8.188C193.063 8.092 192.951 8.024 192.815 7.984C192.679 7.944 192.527 7.924 192.359 7.924C192.111 7.924 191.887 7.984 191.687 8.104C191.487 8.224 191.331 8.388 191.219 8.596C191.107 8.804 191.051 9.044 191.051 9.316V13H189.383ZM199.47 13.144C198.774 13.144 198.19 13.028 197.718 12.796C197.246 12.556 196.89 12.192 196.65 11.704C196.41 11.216 196.29 10.596 196.29 9.844C196.29 9.084 196.41 8.464 196.65 7.984C196.89 7.496 197.242 7.136 197.706 6.904C198.178 6.664 198.754 6.544 199.434 6.544C200.074 6.544 200.614 6.66 201.054 6.892C201.494 7.116 201.826 7.468 202.05 7.948C202.274 8.42 202.386 9.032 202.386 9.784V10.216H197.982C197.998 10.584 198.054 10.896 198.15 11.152C198.254 11.408 198.41 11.6 198.618 11.728C198.834 11.848 199.118 11.908 199.47 11.908C199.662 11.908 199.834 11.884 199.986 11.836C200.146 11.788 200.282 11.716 200.394 11.62C200.506 11.524 200.594 11.404 200.658 11.26C200.722 11.116 200.754 10.952 200.754 10.768H202.386C202.386 11.168 202.314 11.516 202.17 11.812C202.026 12.108 201.826 12.356 201.57 12.556C201.314 12.748 201.006 12.896 200.646 13C200.294 13.096 199.902 13.144 199.47 13.144ZM198.006 9.16H200.67C200.67 8.92 200.638 8.712 200.574 8.536C200.518 8.36 200.438 8.216 200.334 8.104C200.23 7.992 200.102 7.912 199.95 7.864C199.806 7.808 199.642 7.78 199.458 7.78C199.154 7.78 198.898 7.832 198.69 7.936C198.49 8.032 198.334 8.184 198.222 8.392C198.118 8.592 198.046 8.848 198.006 9.16ZM206.382 13.144C205.71 13.144 205.146 13.028 204.69 12.796C204.234 12.556 203.886 12.192 203.646 11.704C203.414 11.208 203.298 10.588 203.298 9.844C203.298 9.084 203.414 8.464 203.646 7.984C203.886 7.496 204.234 7.132 204.69 6.892C205.154 6.652 205.718 6.532 206.382 6.532C206.814 6.532 207.202 6.584 207.546 6.688C207.898 6.792 208.202 6.952 208.458 7.168C208.714 7.384 208.906 7.652 209.034 7.972C209.17 8.284 209.238 8.656 209.238 9.088H207.57C207.57 8.8 207.526 8.564 207.438 8.38C207.35 8.196 207.214 8.056 207.03 7.96C206.854 7.864 206.63 7.816 206.358 7.816C206.038 7.816 205.778 7.888 205.578 8.032C205.378 8.176 205.23 8.388 205.134 8.668C205.038 8.948 204.99 9.296 204.99 9.712V9.988C204.99 10.396 205.038 10.74 205.134 11.02C205.238 11.3 205.394 11.512 205.602 11.656C205.81 11.792 206.082 11.86 206.418 11.86C206.69 11.86 206.914 11.812 207.09 11.716C207.274 11.62 207.414 11.476 207.51 11.284C207.606 11.092 207.654 10.86 207.654 10.588H209.238C209.238 10.996 209.17 11.36 209.034 11.68C208.906 12 208.714 12.268 208.458 12.484C208.21 12.7 207.91 12.864 207.558 12.976C207.206 13.088 206.814 13.144 206.382 13.144ZM210.489 13V4.312H212.157V9.316L214.365 6.688H216.321L214.161 9.16L216.429 13H214.521L213.069 10.336L212.157 11.224V13H210.489ZM219.79 13.144C219.094 13.144 218.51 13.028 218.038 12.796C217.566 12.556 217.21 12.192 216.97 11.704C216.73 11.216 216.61 10.596 216.61 9.844C216.61 9.084 216.73 8.464 216.97 7.984C217.21 7.496 217.562 7.136 218.026 6.904C218.498 6.664 219.074 6.544 219.754 6.544C220.394 6.544 220.934 6.66 221.374 6.892C221.814 7.116 222.146 7.468 222.37 7.948C222.594 8.42 222.706 9.032 222.706 9.784V10.216H218.302C218.318 10.584 218.374 10.896 218.47 11.152C218.574 11.408 218.73 11.6 218.938 11.728C219.154 11.848 219.438 11.908 219.79 11.908C219.982 11.908 220.154 11.884 220.306 11.836C220.466 11.788 220.602 11.716 220.714 11.62C220.826 11.524 220.914 11.404 220.978 11.26C221.042 11.116 221.074 10.952 221.074 10.768H222.706C222.706 11.168 222.634 11.516 222.49 11.812C222.346 12.108 222.146 12.356 221.89 12.556C221.634 12.748 221.326 12.896 220.966 13C220.614 13.096 220.222 13.144 219.79 13.144ZM218.326 9.16H220.99C220.99 8.92 220.958 8.712 220.894 8.536C220.838 8.36 220.758 8.216 220.654 8.104C220.55 7.992 220.422 7.912 220.27 7.864C220.126 7.808 219.962 7.78 219.778 7.78C219.474 7.78 219.218 7.832 219.01 7.936C218.81 8.032 218.654 8.184 218.542 8.392C218.438 8.592 218.366 8.848 218.326 9.16ZM223.93 13V6.688H225.31L225.442 7.672H225.526C225.606 7.464 225.71 7.276 225.838 7.108C225.966 6.932 226.126 6.792 226.318 6.688C226.51 6.584 226.734 6.532 226.99 6.532C227.126 6.532 227.25 6.548 227.362 6.58C227.474 6.604 227.558 6.628 227.614 6.652V8.164H227.098C226.85 8.164 226.63 8.2 226.438 8.272C226.254 8.336 226.098 8.44 225.97 8.584C225.842 8.728 225.746 8.904 225.682 9.112C225.626 9.32 225.598 9.564 225.598 9.844V13H223.93Z" fill="#4C0072"/>
</svg>
